<?xml version="1.0" standalone="no"?>
<!DOCTYPE svg PUBLIC "-//W3C//DTD SVG 1.1//EN" "http://www.w3.org/Graphics/SVG/1.1/DTD/svg11.dtd" >
<svg xmlns="http://www.w3.org/2000/svg">
<metadata>Generated by IcoMoon</metadata>
<defs>
<font id="stratoiconfont" horiz-adv-x="1024">
<font-face units-per-em="1024" ascent="960" descent="-64" />
<missing-glyph horiz-adv-x="1024" />
<glyph unicode="&#x20;" d="" horiz-adv-x="512" />
<glyph unicode="&#xe000;" d="M1071.429 769.143q0-5.714-2.857-10.286-36.571-59.429-102.286-108.571v-18.857q2.286-129.714-57.143-261.143-76.571-169.714-227.143-265.429t-338-95.714q-151.429 0-285.714 69.714-36.571 18.857-49.714 28.571-8.571 6.857-8.571 15.429 0 7.429 5.429 12.857t12.857 5.429q8 0 25.143-1.429t25.714-1.429q116.571 0 214.286 60.571-58.857 13.714-103.429 54.857t-63.429 98.857q-1.143 4.571-1.143 6.286 0 6.857 5.143 12.286t12.571 5.429q2.857 0 8-1.143t6.857-1.143q-50.857 31.429-81.143 84t-30.286 112q0 8.571 6.571 14.571t15.714 6q5.714 0 20-6.571t17.143-7.714q-52.571 62.857-52.571 146.286 0 29.143 8.286 61.714t23.143 54.286q5.714 9.143 14.286 9.143 9.143 0 15.429-6.857 43.429-48 62.857-65.714 70.286-63.429 157.714-101.429t181.143-46q-2.286 12-2.286 28 0 95.429 67.714 163.143t163.143 67.714q93.143 0 161.143-65.143 54.286 11.429 119.429 46.857 4.571 2.857 9.143 2.857 7.429 0 12.857-5.429t5.429-12.857q0-13.714-16-41.714t-29.143-43.429q4 1.143 17.143 6t24.571 9.143 13.714 4.286q7.429 0 12.857-5.429t5.429-12.857z" horiz-adv-x="1097" />
<glyph unicode="&#xe001;" d="M960.837 952.551h-900.069c-30.843 0-55.84-24.997-55.84-55.84v-900.069c0-30.839 24.997-55.84 55.84-55.84h484.565v391.799h-131.849v152.693h131.849v112.608c0 130.679 79.815 201.838 196.391 201.838 55.838 0 103.831-4.155 117.815-6.016v-136.569l-80.85-0.039c-63.401 0-75.678-30.126-75.678-74.331v-97.49h151.202l-19.682-152.693h-131.52v-391.799h257.822c30.839 0 55.84 25.001 55.84 55.84l0.002 900.069c0.002 30.843-25.001 55.84-55.838 55.84z" />
<glyph unicode="&#xe002;" d="M954.857 636.571q0-22.857-16-38.857l-491.429-491.429q-16-16-38.857-16t-38.857 16l-284.571 284.571q-16 16-16 38.857t16 38.857l77.714 77.714q16 16 38.857 16t38.857-16l168-168.571 374.857 375.429q16 16 38.857 16t38.857-16l77.714-77.714q16-16 16-38.857z" />
<glyph unicode="&#xe003;" d="M741.714 204.571q0-22.857-16-38.857l-77.714-77.714q-16-16-38.857-16t-38.857 16l-168 168-168-168q-16-16-38.857-16t-38.857 16l-77.714 77.714q-16 16-16 38.857t16 38.857l168 168-168 168q-16 16-16 38.857t16 38.857l77.714 77.714q16 16 38.857 16t38.857-16l168-168 168 168q16 16 38.857 16t38.857-16l77.714-77.714q16-16 16-38.857t-16-38.857l-168-168 168-168q16-16 16-38.857z" horiz-adv-x="805" />
<glyph unicode="&#xe004;" d="M219.429 118.857q0 14.857-10.857 25.714t-25.714 10.857-25.714-10.857-10.857-25.714 10.857-25.714 25.714-10.857 25.714 10.857 10.857 25.714zM587.429 358.857l-389.714-389.714q-21.143-21.143-51.429-21.143-29.714 0-52 21.143l-60.571 61.714q-21.714 20.571-21.714 51.429 0 30.286 21.714 52l389.143 389.143q22.286-56 65.429-99.143t99.143-65.429zM949.714 607.429q0-22.286-13.143-60.571-26.857-76.571-94-124.286t-147.714-47.714q-105.714 0-180.857 75.143t-75.143 180.857 75.143 180.857 180.857 75.143q33.143 0 69.429-9.429t61.429-26.571q9.143-6.286 9.143-16t-9.143-16l-167.429-96.571v-128l110.286-61.143q2.857 1.714 45.143 27.714t77.429 46.286 40.286 20.286q8.571 0 13.429-5.714t4.857-14.286z" horiz-adv-x="951" />
<glyph unicode="&#xe005;" d="M512 173.714v109.714q0 7.429-5.429 12.857t-12.857 5.429h-109.714q-7.429 0-12.857-5.429t-5.429-12.857v-109.714q0-7.429 5.429-12.857t12.857-5.429h109.714q7.429 0 12.857 5.429t5.429 12.857zM658.286 557.714q0 55.429-33.429 98.286t-82.571 63.714-103.429 20.857-103.429-20.857-82.571-63.714-33.429-98.286v-13.714t0.571-6.571 1.714-6.571 3.143-4.571 5.143-4 7.714-1.143h109.714q8 0 13.143 5.143t5.143 13.143q0 6.857 6.286 15.429 10.857 17.714 28.857 28.571t38 10.857q22.286 0 47.429-12.286t25.143-32.857q0-18.857-15.143-33.143t-36.286-25.143-42.571-23.714-36.571-36.286-15.143-56v-13.714t0.571-6.571 1.714-6.571 3.143-4.571 5.143-4 7.714-1.143h109.714q9.714 0 13.714 6t4.571 14 7.714 18.857 21.429 18.286q34.286 18.857 40 22.286 35.429 25.143 56.286 61.714t20.857 78.286zM877.714 448q0-119.429-58.857-220.286t-159.714-159.714-220.286-58.857-220.286 58.857-159.714 159.714-58.857 220.286 58.857 220.286 159.714 159.714 220.286 58.857 220.286-58.857 159.714-159.714 58.857-220.286z" horiz-adv-x="878" />
<glyph unicode="&#xe006;" d="M950.857 100.571v438.857q-18.286-20.571-39.429-37.714-153.143-117.714-243.429-193.143-29.143-24.571-47.429-38.286t-49.429-27.714-58.571-14h-1.143q-27.429 0-58.571 14t-49.429 27.714-47.429 38.286q-90.286 75.429-243.429 193.143-21.143 17.143-39.429 37.714v-438.857q0-7.429 5.429-12.857t12.857-5.429h841.143q7.429 0 12.857 5.429t5.429 12.857zM950.857 701.143v14t-0.286 7.429-1.714 7.143-3.143 5.143-5.143 4.286-8 1.429h-841.143q-7.429 0-12.857-5.429t-5.429-12.857q0-96 84-162.286 110.286-86.857 229.143-181.143 3.429-2.857 20-16.857t26.286-21.429 25.429-18 28.857-15.714 24.571-5.143h1.143q11.429 0 24.571 5.143t28.857 15.714 25.429 18 26.286 21.429 20 16.857q118.857 94.286 229.143 181.143 30.857 24.571 57.429 66t26.571 75.143zM1024 722.286v-621.714q0-37.714-26.857-64.571t-64.571-26.857h-841.143q-37.714 0-64.571 26.857t-26.857 64.571v621.714q0 37.714 26.857 64.571t64.571 26.857h841.143q37.714 0 64.571-26.857t26.857-64.571z" />
<glyph unicode="&#xe007;" d="M841.143 411.429q0-30.857-21.143-52l-372-372q-22.286-21.143-52-21.143-29.143 0-51.429 21.143l-42.857 42.857q-21.714 21.714-21.714 52t21.714 52l167.429 167.429h-402.286q-29.714 0-48.286 21.429t-18.571 51.714v73.143q0 30.286 18.571 51.714t48.286 21.429h402.286l-167.429 168q-21.714 20.571-21.714 51.429t21.714 51.429l42.857 42.857q21.714 21.714 51.429 21.714 30.286 0 52-21.714l372-372q21.143-20 21.143-51.429z" horiz-adv-x="878" />
<glyph unicode="&#xe008;" d="M877.714 448v-73.143q0-30.286-18.571-51.714t-48.286-21.429h-402.286l167.429-168q21.714-20.571 21.714-51.429t-21.714-51.429l-42.857-43.429q-21.143-21.143-51.429-21.143-29.714 0-52 21.143l-372 372.571q-21.143 21.143-21.143 51.429 0 29.714 21.143 52l372 371.429q21.714 21.714 52 21.714 29.714 0 51.429-21.714l42.857-42.286q21.714-21.714 21.714-52t-21.714-52l-167.429-167.429h402.286q29.714 0 48.286-21.429t18.571-51.714z" horiz-adv-x="878" />
<glyph unicode="&#xe009;" d="M920.571 405.143q0-29.143-21.143-51.429l-42.857-42.857q-21.714-21.714-52-21.714-30.857 0-51.429 21.714l-168 167.429v-402.286q0-29.714-21.429-48.286t-51.714-18.571h-73.143q-30.286 0-51.714 18.571t-21.429 48.286v402.286l-168-167.429q-20.571-21.714-51.429-21.714t-51.429 21.714l-42.857 42.857q-21.714 21.714-21.714 51.429 0 30.286 21.714 52l372 372q20 21.143 51.429 21.143 30.857 0 52-21.143l372-372q21.143-22.286 21.143-52z" horiz-adv-x="951" />
<glyph unicode="&#xe00a;" d="M920.571 484.571q0-30.286-21.143-51.429l-372-372.571q-22.286-21.143-52-21.143-30.286 0-51.429 21.143l-372 372.571q-21.714 20.571-21.714 51.429 0 30.286 21.714 52l42.286 42.857q22.286 21.143 52 21.143 30.286 0 51.429-21.143l168-168v402.286q0 29.714 21.714 51.429t51.429 21.714h73.143q29.714 0 51.429-21.714t21.714-51.429v-402.286l168 168q21.143 21.143 51.429 21.143 29.714 0 52-21.143l42.857-42.857q21.143-22.286 21.143-52z" horiz-adv-x="951" />
<glyph unicode="&#xe00b;" d="M358.286 649.143q0-7.429-5.714-13.143l-224.571-224.571 224.571-224.571q5.714-5.714 5.714-13.143t-5.714-13.143l-28.571-28.571q-5.714-5.714-13.143-5.714t-13.143 5.714l-266.286 266.286q-5.714 5.714-5.714 13.143t5.714 13.143l266.286 266.286q5.714 5.714 13.143 5.714t13.143-5.714l28.571-28.571q5.714-5.714 5.714-13.143z" horiz-adv-x="366" />
<glyph unicode="&#xe00c;" d="M340 411.429q0-7.429-5.714-13.143l-266.286-266.286q-5.714-5.714-13.143-5.714t-13.143 5.714l-28.571 28.571q-5.714 5.714-5.714 13.143t5.714 13.143l224.571 224.571-224.571 224.571q-5.714 5.714-5.714 13.143t5.714 13.143l28.571 28.571q5.714 5.714 13.143 5.714t13.143-5.714l266.286-266.286q5.714-5.714 5.714-13.143z" horiz-adv-x="366" />
<glyph unicode="&#xe00d;" d="M614.286 283.429q0-7.429-5.714-13.143l-28.571-28.571q-5.714-5.714-13.143-5.714t-13.143 5.714l-224.571 224.571-224.571-224.571q-5.714-5.714-13.143-5.714t-13.143 5.714l-28.571 28.571q-5.714 5.714-5.714 13.143t5.714 13.143l266.286 266.286q5.714 5.714 13.143 5.714t13.143-5.714l266.286-266.286q5.714-5.714 5.714-13.143z" horiz-adv-x="658" />
<glyph unicode="&#xe00e;" d="M614.286 539.429q0-7.429-5.714-13.143l-266.286-266.286q-5.714-5.714-13.143-5.714t-13.143 5.714l-266.286 266.286q-5.714 5.714-5.714 13.143t5.714 13.143l28.571 28.571q5.714 5.714 13.143 5.714t13.143-5.714l224.571-224.571 224.571 224.571q5.714 5.714 13.143 5.714t13.143-5.714l28.571-28.571q5.714-5.714 5.714-13.143z" horiz-adv-x="658" />
<glyph unicode="&#xe00f;" d="M358.286 173.714q0-7.429-5.714-13.143l-28.571-28.571q-5.714-5.714-13.143-5.714t-13.143 5.714l-266.286 266.286q-5.714 5.714-5.714 13.143t5.714 13.143l266.286 266.286q5.714 5.714 13.143 5.714t13.143-5.714l28.571-28.571q5.714-5.714 5.714-13.143t-5.714-13.143l-224.571-224.571 224.571-224.571q5.714-5.714 5.714-13.143zM577.714 173.714q0-7.429-5.714-13.143l-28.571-28.571q-5.714-5.714-13.143-5.714t-13.143 5.714l-266.286 266.286q-5.714 5.714-5.714 13.143t5.714 13.143l266.286 266.286q5.714 5.714 13.143 5.714t13.143-5.714l28.571-28.571q5.714-5.714 5.714-13.143t-5.714-13.143l-224.571-224.571 224.571-224.571q5.714-5.714 5.714-13.143z" horiz-adv-x="585" />
<glyph unicode="&#xe010;" d="M340 411.429q0-7.429-5.714-13.143l-266.286-266.286q-5.714-5.714-13.143-5.714t-13.143 5.714l-28.571 28.571q-5.714 5.714-5.714 13.143t5.714 13.143l224.571 224.571-224.571 224.571q-5.714 5.714-5.714 13.143t5.714 13.143l28.571 28.571q5.714 5.714 13.143 5.714t13.143-5.714l266.286-266.286q5.714-5.714 5.714-13.143zM559.429 411.429q0-7.429-5.714-13.143l-266.286-266.286q-5.714-5.714-13.143-5.714t-13.143 5.714l-28.571 28.571q-5.714 5.714-5.714 13.143t5.714 13.143l224.571 224.571-224.571 224.571q-5.714 5.714-5.714 13.143t5.714 13.143l28.571 28.571q5.714 5.714 13.143 5.714t13.143-5.714l266.286-266.286q5.714-5.714 5.714-13.143z" horiz-adv-x="585" />
<glyph unicode="&#xe011;" d="M614.286 210.286q0-7.429-5.714-13.143l-28.571-28.571q-5.714-5.714-13.143-5.714t-13.143 5.714l-224.571 224.571-224.571-224.571q-5.714-5.714-13.143-5.714t-13.143 5.714l-28.571 28.571q-5.714 5.714-5.714 13.143t5.714 13.143l266.286 266.286q5.714 5.714 13.143 5.714t13.143-5.714l266.286-266.286q5.714-5.714 5.714-13.143zM614.286 429.714q0-7.429-5.714-13.143l-28.571-28.571q-5.714-5.714-13.143-5.714t-13.143 5.714l-224.571 224.571-224.571-224.571q-5.714-5.714-13.143-5.714t-13.143 5.714l-28.571 28.571q-5.714 5.714-5.714 13.143t5.714 13.143l266.286 266.286q5.714 5.714 13.143 5.714t13.143-5.714l266.286-266.286q5.714-5.714 5.714-13.143z" horiz-adv-x="658" />
<glyph unicode="&#xe012;" d="M614.286 466.286q0-7.429-5.714-13.143l-266.286-266.286q-5.714-5.714-13.143-5.714t-13.143 5.714l-266.286 266.286q-5.714 5.714-5.714 13.143t5.714 13.143l28.571 28.571q5.714 5.714 13.143 5.714t13.143-5.714l224.571-224.571 224.571 224.571q5.714 5.714 13.143 5.714t13.143-5.714l28.571-28.571q5.714-5.714 5.714-13.143zM614.286 685.714q0-7.429-5.714-13.143l-266.286-266.286q-5.714-5.714-13.143-5.714t-13.143 5.714l-266.286 266.286q-5.714 5.714-5.714 13.143t5.714 13.143l28.571 28.571q5.714 5.714 13.143 5.714t13.143-5.714l224.571-224.571 224.571 224.571q5.714 5.714 13.143 5.714t13.143-5.714l28.571-28.571q5.714-5.714 5.714-13.143z" horiz-adv-x="658" />
<glyph unicode="&#xe013;" d="M512 960c-282.77 0-512-229.23-512-512s229.23-512 512-512 512 229.23 512 512-229.23 512-512 512zM512 32c-229.751 0-416 186.249-416 416s186.249 416 416 416 416-186.249 416-416-186.249-416-416-416zM384 672l384-224-384-224z" />
<glyph unicode="&#xe014;" d="M768 960h256v-1024h-256zM384 704h256v-768h-256zM0 448h256v-512h-256z" />
<glyph unicode="&#xe015;" d="M64 448c35.36 0 64-28.64 64-64v-256c0-35.36-28.64-64-64-64h-64v-128h512v128h-63.744c-35.264 0-64.256 28.64-64.256 64l-0.128 448h-383.872v-128h64zM128 832c0-70.692 57.308-128 128-128s128 57.308 128 128c0 70.692-57.308 128-128 128s-128-57.308-128-128z" horiz-adv-x="512" />
<glyph unicode="&#xe016;" d="M957.797 576h-57.406c-35.166 0-65.989 29.742-68.391 64v0c0.005 182.667-147.257 320-331.191 320h-167.824c-183.81 0-332.855-148-332.985-330.665v-362.798c0-182.656 149.175-330.537 332.983-330.537h358.421c183.947 0 332.597 147.881 332.597 330.535v234.384c0 36.501-29.44 75.081-66.203 75.081zM320 704h192c35.2 0 64-28.8 64-64s-28.8-64-64-64h-192c-35.2 0-64 28.8-64 64s28.8 64 64 64zM704 192h-384c-35.2 0-64 28.8-64 64s28.8 64 64 64h384c35.2 0 64-28.8 64-64s-28.8-64-64-64z" />
<glyph unicode="&#xe017;" d="M136.295 209.070c-75.195 0-136.293-61.335-136.293-136.075 0-75.154 61.099-135.801 136.293-135.801 75.465 0 136.494 60.649 136.494 135.801-0.002 74.743-61.024 136.075-136.494 136.075zM0.155 612.071v-196.258c127.785 0 247.959-49.973 338.457-140.512 90.384-90.318 140.281-211.035 140.281-339.301h197.122c0 372.821-303.28 676.071-675.861 676.071zM0.389 960v-196.357c455.783 0 826.757-371.335 826.757-827.643h196.855c0 564.471-459.255 1024-1023.611 1024z" />
<glyph unicode="&#xe018;" d="M512-64q-139.001 0-257.001 17.001t-186.501 46.501-68.501 64.501v128q0 8 6 19.001 62-37.001 202.501-60t303.499-23.001 303.499 23.001 202.501 60q6-11.001 6-19.001v-128q0-35.001-68.501-64.501t-186.501-46.501-257.001-17.001zM512 192q-139.001 0-257.001 17.001t-186.501 46.501-68.501 64.501v128q0 8 6 19.001 62-37.001 202.501-60t303.499-23.001 303.499 23.001 202.501 60q6-11.001 6-19.001v-128q0-35.001-68.501-64.501t-186.501-46.501-257.001-17.001zM512 448q-139.001 0-257.001 17.001t-186.501 46.501-68.501 64.501v128q0 8 6 19.001 62-37.001 202.501-60t303.499-23.001 303.499 23.001 202.501 60q6-11.001 6-19.001v-128q0-35.001-68.501-64.501t-186.501-46.501-257.001-17.001zM512 704q-139.001 0-257.001 17.001t-186.501 46.501-68.501 64.501 68.501 64.501 186.501 46.501 257.001 17.001 257.001-17.001 186.501-46.501 68.501-64.501-68.501-64.501-186.501-46.501-257.001-17.001z" />
<glyph unicode="&#xe019;" d="M991.001-64l-134 134q-69.001-63.001-157.499-98.501t-186.501-35.499q-159.001 0-288.501 89.499t-186.501 232.501l119.001 48q43.001-108 139.499-175.001t216.501-67.001q145.001 0 254 97.001l-126 127.001q-1.001 14 8.501 23.499t23.499 8.501h309.001q14 0 27.499-13.499t14.501-27.499l1.001-320q1.001-24-34-23.001zM513.001 832q-145.001 0-254-96l126-127.001q1.001-14-8.501-23.499t-23.499-9.499h-309.001q-14 1.001-27.499 14.501t-14.501 27.499l-1.001 320q-1.001 24 34 23.001l134-134q69.001 63.001 157.499 98t186.501 35.001q159.001 0 288.501-89.001t186.501-233.001l-119.001-47.001q-43.001 108-139.499 174.501t-216.501 66.501z" />
<glyph unicode="&#xe01a;" d="M960 384h-86q22 63.001 22 128h64q26 0 45.001-19.001t19.001-45.499-19.001-45.001-45.001-18.501zM928 616.999l-41.001-24q-13.001 63.001-48 119.001l26 15.001q23.001 14 48 7.001t38.501-30 6.501-48.501-30-38.501zM782 784.999q-45.001 45.001-105.001 73.001l4 6q13.001 23.001 38.501 30t48.501-6.501 30-38.501-7.001-48zM791.001 94.999q14-23.001 7.001-48t-30-38.501-48.501-6.501-38.501 30l-65.001 111.001q63.001 17.001 116 54zM511.499-64q-26.501 0-45.001 18.501t-18.501 45.499v136q32-8 64-8 30 0 64 6v-134q0-27.001-19.001-45.499t-45.499-18.501zM512 576q-33.001 0-52 27.001-91.001-14-147.499-71.499t-56.501-147.499h-192q-26 0-45.001 18.501t-19.001 45.001 19.001 45.499 45.001 19.001h211.001l-179.001 105.001q-23.001 13.001-30 38.501t6.501 48.501 38.501 30 48-7.001l176-102-102 176q-14 23.001-7.001 48t30 38.501 48.501 6.501 38.501-30l105.001-179.001v211.001q0 26 18.501 45.001t45.499 19.001 45.499-19.001 18.501-45.001v-256q0-27.001-19.001-45.499t-45.001-18.501zM96 278.999l161.001 94q2-68 38-125.001l-136-79.001q-23.001-14-48-7.001t-38.501 30-6.501 48.501 30 38.501zM310 228q41.001-54 101.001-79.001l-68-117.001q-13.001-23.001-38.501-30t-48.501 6.501-30 38.501 7.001 48zM848 326l80-47.001q23.001-13.001 30-38.501t-6.501-48.501-38.501-30-48 7.001l-98 57.001q50 44 81.001 100z" />
<glyph unicode="&#xe01b;" d="M896 384h-128v-128q0-27.001 18.501-45.499t45.001-18.501 45.499-19.001 19.001-45.499-19.001-45.001-45.001-18.501h-128q-31.001 0-61.001 32t-48.501 77.001-18.501 83.001v448q0 53.001 37.499 90.501t90.501 37.499h192q53.001 0 90.501-37.499t37.499-90.501v-192q0-53.001-37.499-90.501t-90.501-37.499zM320 384h-128v-128q0-27.001 18.501-45.499t45.499-18.501 45.499-19.001 18.501-45.499-18.501-45.001-45.499-18.501h-128q-30 0-60.501 32t-49.001 77.001-18.501 83.001v448q0 53.001 37.499 90.501t90.501 37.499h192q53.001 0 90.501-37.499t37.499-90.501v-192q0-53.001-37.499-90.501t-90.501-37.499z" />
<glyph unicode="&#xe01c;" d="M146.286 192q0 14.857-10.857 25.714t-25.714 10.857-25.714-10.857-10.857-25.714 10.857-25.714 25.714-10.857 25.714 10.857 10.857 25.714zM804.571 521.143q0 29.143-22.286 51.143t-50.857 22h-201.143q0 33.143 27.429 91.143t27.429 91.714q0 56-18.286 82.857t-73.143 26.857q-14.857-14.857-21.714-48.571t-17.429-71.714-34-62.571q-12.571-13.143-44-52-2.286-2.857-13.143-17.143t-18-23.429-19.714-24.286-22.857-25.143-22-20.286-22.857-15.429-20.286-5.143h-18.286v-365.714h18.286q7.429 0 18-1.714t18.857-3.714 21.714-6.286 20-6.571 20.286-7.143 16.571-6q120.571-41.714 195.429-41.714h69.143q109.714 0 109.714 95.429 0 14.857-2.857 32 17.143 9.143 27.143 30t10 42-10.286 39.429q30.286 28.571 30.286 68 0 14.286-5.714 31.714t-14.286 27.143q18.286 0.571 30.571 26.857t12.286 46.286zM877.714 521.714q0-50.857-28-93.143 5.143-18.857 5.143-39.429 0-44-21.714-82.286 1.714-12 1.714-24.571 0-57.714-34.286-101.714 0.571-79.429-48.571-125.429t-129.714-46h-73.714q-54.857 0-108.286 12.857t-123.714 37.429q-66.286 22.857-78.857 22.857h-164.571q-30.286 0-51.714 21.429t-21.429 51.714v365.714q0 30.286 21.429 51.714t51.714 21.429h156.571q20.571 13.714 78.286 88.571 33.143 42.857 61.143 73.143 13.714 14.286 20.286 48.857t17.429 72.286 35.429 61.714q22.286 21.143 51.429 21.143 48 0 86.286-18.571t58.286-58 20-106.286q0-53.143-27.429-109.714h100.571q59.429 0 102.857-43.429t43.429-102.286z" horiz-adv-x="878" />
<glyph unicode="&#xe01d;" d="M1024 302.457c0 82.089-56.679 150.901-132.997 169.479-3.241 128.702-108.457 232.064-237.861 232.064-75.792 0-143.266-35.495-186.855-90.731-24.441 31.598-62.69 51.961-105.707 51.961-73.81 0-133.641-59.874-133.641-133.721 0-6.437 0.48-12.759 1.365-18.953-11.223 2.023-22.766 3.138-34.569 3.138-107.001-0.002-193.735-86.791-193.735-193.847 0-107.061 86.734-193.847 193.73-193.847l656.263 0.011c96.137 0.185 174.007 78.213 174.007 174.446z" />
<glyph unicode="&#xe01e;" d="M891.003 599.941c-3.241 128.697-108.457 232.059-237.861 232.059-75.792 0-143.266-35.495-186.855-90.731-24.441 31.598-62.69 51.961-105.707 51.961-73.81 0-133.641-59.874-133.641-133.721 0-6.437 0.48-12.759 1.365-18.953-11.223 2.023-22.766 3.138-34.569 3.138-107.001-0.002-193.735-86.791-193.735-193.845 0-107.063 86.734-193.849 193.73-193.849h99.76l218.51-218.51 218.51 218.51 119.481 0.011c96.139 0.185 174.009 78.213 174.009 174.446 0 82.091-56.679 150.901-132.997 169.483zM512 128l-192 192h128v192h128v-192h128l-192-192z" />
<glyph unicode="&#xe01f;" d="M892.267 573.511c2.446 11.109 3.733 22.647 3.733 34.489 0 88.366-71.634 160-160 160-14.222 0-28.014-1.867-41.131-5.351-24.798 77.351-97.291 133.351-182.869 133.351-87.349 0-161.054-58.336-184.327-138.169-22.741 6.622-46.791 10.169-71.673 10.169-141.383 0-256-114.615-256-256 0-141.387 114.617-256 256-256h128v-192h256v192h224c88.366 0 160 71.632 160 160 0 78.72-56.855 144.162-131.733 157.511zM576 320v-192h-128v192h-160l224 224 224-224h-160z" />
<glyph unicode="&#xe020;" d="M725.333 277.333h-426.665v426.667h170.665l85.335 128h-384v-682.667h682.665v256l-42.665-42.665zM341.333 362.667c0 0 42.667 85.333 170.667 128s128 0 128 0v-170.667l256 256-256 256v-128c-63.488-9.173-127.573-42.24-170.667-85.333-85.333-85.335-128-256-128-256z" />
<glyph unicode="&#xe021;" d="M1024 369.557l-512 397.426-512-397.429v162.037l512 397.426 512-397.426zM896 384v-384h-256v256h-256v-256h-256v384l384 288z" />
<glyph unicode="&#xe022;" d="M702.958 164.811c-33.719 21.225-67.799 38.293-102.192 51.211-15.979-38.245-36.423-73.205-60.997-104.194-16.357-20.631-32.711-37.216-47.472-50.281 32.151 4.777 63.456 13.57 93.575 26.309 43.509 18.4 82.853 44.27 117.086 76.955zM792.923 295.042c18.133 42.871 28.267 88.958 30.206 134.958h-180.688c-1.111-70-11.527-129.863-31.003-185.913 38.215-14.293 75.927-33.349 112.919-57.056 28.747 32.057 51.769 68.306 68.567 108.011zM414 63.234v182.235c-32-1.739-67.63-7.429-102.283-17.090-6.709-1.874-12.674-3.861-19.088-5.936 16.581-38.782 35.113-69.138 53.104-92.046 25.351-32.272 54.267-53.968 68.267-67.163zM446 63.659c20 13.070 44.873 35.077 70.933 68.249 18.283 23.278 37.915 54.238 54.663 93.931-41.429 12.709-83.595 19.429-125.595 20.137v-182.318zM446 275.854c22-0.377 42.635-2.139 63.703-5.335 24.393-3.694 48.795-9.15 72.894-16.619 16.546 47.559 28.459 102.101 29.678 176.101h-166.274v-154.146zM446 829.73v-105.73h93.097c-6.942 12-14.169 22.432-20.93 31.481-26.752 35.806-52.167 60.523-72.167 74.249zM574.146 724h130.681c-34.667 34-74.654 61.031-118.955 79.769-30.27 12.8-61.742 22.117-94.064 26.873 15.289-14.128 32.489-33.088 49.694-55.915 11.881-15.769 22.763-32.727 32.645-50.727zM146.695 184.553c24.441 16.457 60.887 37.963 107.003 55.947-20.091 57.001-30.754 119.499-31.739 189.499h-176.146c1.938-46 12.071-92.087 30.201-134.958 17.205-40.674 40.944-77.856 70.681-110.489zM141.493 702.245c-27.312-31.191-49.287-67.191-65.479-105.465-18.523-43.792-28.697-88.779-30.318-138.779h176.437c1.666 66 11.378 122.61 28.944 176.231-37.28 17.019-67.669 36.768-88.889 51.95-7.707 5.52-14.613 11.237-20.695 16.064zM373.669 830.619c-31.104-4.869-61.415-13.499-90.603-25.849-45.072-19.063-85.685-46.144-120.766-80.523 5.465-4.29 11.609-8.921 18.391-13.746 19.442-13.842 46.997-31.289 80.656-46.862 15.941 40.466 36.583 77.675 61.57 110.834 17.602 23.362 35.205 41.881 50.752 56.146zM344.795 754.976c-19.015-25.447-39.049-59.525-56.126-103.184 7.573-2.926 17.337-5.714 25.369-8.311 4.665-1.509 3.959-2.914 15.959-4.256l0.002 84.775h84v103.077c-14-13.883-43.179-37.273-69.205-72.101zM279.145 622.425c-14.624-45.346-25.051-98.425-26.837-164.425h77.691v149.945c-12 2.176-17.989 4.105-26.133 6.759-7.893 2.578-17.25 4.853-24.722 7.721zM264.617 212.208c-40.551-15.881-73.369-34.649-96.265-49.632 33.675-31.63 72.21-56.738 114.713-74.715 27.755-11.739 56.523-20.123 86.023-25.104-13.954 12.624-29.193 28.341-44.439 47.568-24.078 30.37-44.194 64.546-60.032 101.883zM414 430h-161.881c1.086-74 13.179-131.056 30.153-179.264 6.919 2.265 12.825 4.361 20.082 6.405 37.433 10.539 75.648 16.585 111.648 18.293v154.567zM355.968 672.311h45.36c11.175-61.941 17.922-102.011 20.231-120.215h0.581c1.538 11.321 4.139 25.031 7.803 41.127l17.911 79.090h35.543c14.93-66.048 23.314-106.121 25.145-120.215h0.574c1.447 17.093 8.375 57.163 20.807 120.215h43.634l-43.925-162.841h-42.19c-10.114 42.517-15.915 67.433-17.408 74.761-1.495 7.328-3.399 18.373-5.707 33.134h-0.581c-2.213-17.65-5.058-33.36-8.523-47.122l-15.17-60.777h-42.185l-41.899 162.843zM580.201 672.311h45.362c11.175-61.941 17.92-102.011 20.226-120.215h0.583c1.534 11.321 4.137 25.031 7.797 41.127l17.922 79.090h35.541c14.93-66.048 23.307-106.121 25.138-120.215h0.585c1.438 17.093 8.375 57.163 20.802 120.215h43.632l-43.922-162.841h-42.19c-10.117 42.517-15.92 67.433-17.406 74.761-1.497 7.328-3.399 18.373-5.71 33.134h-0.576c-2.222-17.65-5.058-33.36-8.528-47.122l-15.17-60.777h-42.187l-41.899 162.843zM804.425 672.311h45.369c11.17-61.941 17.918-102.011 20.231-120.215h0.574c1.543 11.321 4.139 25.031 7.797 41.127l17.925 79.090h35.541c14.933-66.048 23.305-106.121 25.138-120.215h0.581c1.449 17.093 8.379 57.163 20.805 120.215h43.634l-43.925-162.841h-42.19c-10.11 42.517-15.92 67.433-17.413 74.761-1.49 7.328-3.392 18.373-5.703 33.134h-0.576c-2.219-17.65-5.058-33.36-8.526-47.122l-15.173-60.777h-42.19l-41.899 162.843zM840.459 430c-7.36-218-186.793-391.634-406.309-391.634-224.171 0-406.549 182.875-406.549 407.049s182.377 406.921 406.549 406.921c116.834 0 222.306-50.336 296.537-128.336h38.048c-8.528 8-17.559 20.021-27.079 29.541-39.934 39.934-86.439 71.225-138.226 93.129-53.623 22.679-110.576 34.149-169.28 34.149-58.702 0-115.657-11.513-169.278-34.194-51.785-21.909-98.295-53.271-138.226-93.205-39.936-39.934-71.289-86.441-93.193-138.229-22.681-53.623-34.181-110.583-34.181-169.282 0-58.702 11.499-115.659 34.181-169.282 21.904-51.792 53.257-98.293 93.193-138.224 39.931-39.934 86.439-71.291 138.226-93.193 53.623-22.681 110.576-34.181 169.278-34.181 58.704 0 115.657 11.497 169.28 34.181 51.79 21.899 98.293 53.259 138.226 93.191 39.938 39.934 71.289 85.449 93.193 137.23 20.88 49.381 32.279 102.37 33.957 154.37h-28.347z" />
<glyph unicode="&#xe023;" d="M974.11 727.403h-465.193c-6.352 0-17.179 5.817-20.683 11.113l-47.618 71.945c-11.941 18.041-37.259 31.646-58.894 31.646h-333.125c-26.77 0-48.551-21.781-48.551-48.549l-0.046-690.997c0-12.939 5.054-25.12 14.235-34.299 9.179-9.177 21.36-14.233 34.297-14.233l925.591 0.571c26.761 0.018 48.537 21.801 48.537 48.565v575.689c-0.002 26.768-21.781 48.549-48.551 48.549zM320.491 174.939c-23.481 0-42.544 19.040-42.544 42.567v149.042c23.509 0 42.544-19.063 42.544-42.569v-85.189c0-11.739 9.566-21.287 21.335-21.287h85.141c23.531 0 42.592-19.061 42.592-42.567h-149.067zM612.533 315.543c0-11.698-9.493-21.189-21.186-21.189h-169.351c-11.719 0-21.209 9.49-21.209 21.189v169.378c0 11.694 9.495 21.186 21.209 21.186h169.351c11.694 0 21.186-9.493 21.186-21.186v-169.378zM733.467 435.525c-23.559 0-42.571 19.063-42.571 42.594v85.161c0 11.742-9.563 21.285-21.305 21.285h-85.141c-23.559 0-42.645 19.111-42.645 42.594h149.093c23.511 0 42.571-19.063 42.571-42.594v-149.040z" />
<glyph unicode="&#xe024;" d="M898.615 534.631c32.951 0 40.846 19.063 17.545 42.361l-360.535 360.537c-23.298 23.301-61.424 23.301-84.725 0l-360.537-360.537c-23.301-23.301-15.403-42.361 17.545-42.361h770.706zM92-29.385c0-18.085 15.127-32.615 33.575-32.615h272.425v234h-306v-201.385zM624-62h274.583c18.295 0 33.417 14.53 33.417 32.617v201.383h-308v-234zM898.578 494h-773.273c-18.295 0-33.305-17.243-33.305-35.328v-244.672h308v63.687c0 18.085 15.746 34.313 34.041 34.313h154.304c18.297 0 35.653-16.231 35.653-34.313v-63.687h308v244.672c0.002 18.085-15.125 35.328-33.419 35.328z" />
<glyph unicode="&#xe025;" d="M626.375 482.327c0.199 0.066 0.402 0.133 0.601 0.201 0.082 0.030 0.16 0.066 0.24 0.096l-0.841-0.297zM997.691 482.293l-0.199 0.039c-24.729 8.555-55.767 15.648-89.666 20.505-32.055 4.592-65.241 7.017-95.918 7.017-30.683 0-63.861-2.425-95.915-7.017-33.625-4.818-64.391-11.835-89.022-20.302-16.711-6.025-30.583-22.299-30.583-40.114l0.126-0.59c1.824-52.567 8.535-109.57 15.847-156.416 10.272-65.879 18.528-78.162 22.599-82.558 24.665-31.89 93.998-77.106 135.561-104.222l3.819-2.48c10.153-6.626 22.51-13.445 37.081-13.815l0.464-0.011 0.443 0.011c14.581 0.373 26.919 7.191 37.086 13.817l3.765 2.457c41.57 27.127 110.882 72.347 135.545 104.242 4.066 4.395 12.231 16.665 22.505 82.558 7.326 46.96 12.587 101.829 14.503 154.491l0.265 2.121v0.393c0.002 17.899-11.479 33.922-28.306 39.872zM876.059 225.865c0-8.041-5.479-13.765-13.52-13.765h-116.473c-8.055 0-14.528 5.719-14.528 13.765v116.498c0 8.041 6.473 14.261 14.528 14.261h116.473c8.041 0 13.52-6.217 13.52-14.261v-116.498zM935.673 290.661c-16.258 0-30.709 13.109-30.709 29.291v58.569c0 8.075-5.865 14.226-13.938 14.226h-58.551c-16.206 0-29.33 12.647-29.33 28.905h102.539c16.167 0 29.991-12.306 29.991-28.494v-102.498zM58.734 171.447c-6.459 2.123-12.389 7.801-14.569 14.144v461.191c1.806 5.582 6.153 10.715 11.362 13.33h766.432c8.133-0.025 16.231-7.257 18.875-15.342v-110.834c14.846-0.571 29.995-1.623 45.163-3.083v235.529c0 26.569-21.618 48.185-48.185 48.185l-790.626 0.002c-26.569 0-48.187-21.618-48.187-48.187v-591.913c0-26.567 21.616-48.185 48.185-48.185h630.162v2.891c-19.433 14.363-37.463 28.91-50.955 42.27l-567.657 0.002zM800.553 740.985c13.634 0 24.686-11.051 24.686-24.688 0-13.632-11.049-24.686-24.686-24.686s-24.69 11.051-24.69 24.686c0.002 13.637 11.056 24.688 24.69 24.688zM729.013 740.985c13.634 0 24.688-11.051 24.688-24.688 0-13.632-11.051-24.686-24.688-24.686s-24.688 11.051-24.688 24.686c0 13.637 11.051 24.688 24.688 24.688zM656.203 742.251c13.634 0 24.688-11.051 24.688-24.686s-11.051-24.686-24.688-24.686c-13.632 0-24.683 11.049-24.683 24.686 0 13.634 11.049 24.686 24.683 24.686zM45.065 734.178h540.144v-28.905h-540.144v28.905zM587.968 275.029c-8.487 54.418-14.768 121.335-16.983 182.377v0l-0.226 0.085c0 20.743 18.443 39.657 37.938 46.551l-1.2-0.247c28.661 9.918 61.017 18.144 100.297 23.774 37.15 5.321 76.912 8.137 112.471 8.137 2.126 0 1.735-0.009 7.735-0.025l-0.002 89.739c0 9.918-10.462 18.581-20.411 18.581h-725.541c-9.945 0-18.046-8.663-18.046-18.581v-418.528c0-9.92 8.101-18.891 18.046-18.891h526.197c-5.122 14-12.126 34.8-20.274 87.029z" />
<glyph unicode="&#xe026;" d="M929.472 109.751l8.446-28.158c-24.869-10.953-53.961-16.423-87.269-16.423-41.927 0-77.353 13.883-106.283 41.646-28.93 27.76-43.399 63.461-43.399 107.097 0 32.219 7.659 62.133 22.985 89.737 15.328 27.6 36.638 49.184 63.929 64.745 27.296 15.561 57.755 23.349 91.383 23.349 41.913 0 76.635-12.944 104.169-38.825 27.527-25.883 41.291-58.768 41.291-98.647 0-32.69-8.642-59.161-25.929-79.417-17.287-20.254-38.983-30.377-65.099-30.377-24.094 0-37.696 11.883-40.823 35.659h-0.937c-15.641-23.776-36.293-35.659-61.941-35.659-15.957 0-28.933 5.623-38.939 16.891-10.014 11.257-15.017 26.277-15.017 45.042 0 29.719 10.322 55.211 30.962 76.48s47.552 31.909 80.709 31.909c23.143 0 42.073-3.913 56.777-11.728l-13.609-87.038c-1.248-7.511-1.874-13.845-1.874-19.006 0-13.767 4.923-20.642 14.777-20.642 11.579 0 21.945 7.033 31.088 21.111s13.723 32.846 13.723 56.306c0 32.219-10.327 58.341-30.969 78.357-20.642 20.018-48.48 30.032-83.513 30.032-38.167 0-70.384-13.376-96.661-40.121-26.281-26.743-39.413-61.232-39.413-103.456 0-38.475 11.296-68.665 33.897-90.56 22.599-21.897 52.119-32.843 88.567-32.843 26.119-0.009 49.106 4.832 68.971 14.539zM889.12 232.208l6.105 42.695c-5.013 1.25-9.863 1.883-14.551 1.883-15.483 0-28.741-6.338-39.76-19.008-11.029-12.67-16.539-27.762-16.539-45.28 0-19.707 7.977-29.561 23.929-29.561 8.917 0 17.479 4.805 25.685 14.425 8.208 9.621 13.255 21.237 15.131 34.846zM803.63 408.999l-99.211 91.038 211.582 189.961v-268.142c-8 1.303-19.41 1.991-29.431 1.991-29.003 0-56.617-5.639-81.925-15.874l-1.015 1.026zM771.76 392.907l-92.206 84.711-200.766-180.155-214.695 182.407-264.094-246.567v-59.282c0-12.053 7.259-22.498 17.541-27.225 3.509-1.753 7.577-2.795 11.753-2.795h649.314c-6.187 18-9.522 41.442-9.522 63.527 0 77.927 41.472 146.256 103.682 184.32l-1.008 1.061zM0 281.417l236.985 221.376-236.985 201.481zM916 801.623c0 16.512-13.198 30.377-29.712 30.377h-856.146c-16.514 0-30.142-13.865-30.142-30.377v-51.195l477.906-406.281 438.094 393.095v64.382z" />
<glyph unicode="&#xe027;" d="M982.053 824h-939.305c-23.557 0-42.747-19.454-42.747-43.010v-124.919c0-23.554 19.191-42.071 42.747-42.071h939.303c23.557 0 41.947 18.517 41.947 42.073l0.002 124.917c0 23.557-18.752 43.010-42.306 43.010h0.359zM925.701 706h-45.957c-8.29 0-15.008 6.709-15.008 15.001 0 8.29 6.718 15.001 15.008 15.001h45.957c8.29 0 15.008-6.711 15.008-15.001 0-8.293-6.72-15.001-15.008-15.001zM1024 384.827c0-23.653-19.175-42.827-42.827-42.827h-938.345c-23.653 0-42.827 19.175-42.827 42.827v124.343c0 23.655 19.175 42.83 42.827 42.83h938.345c23.653 0 42.827-19.175 42.827-42.827v-124.345zM940.709 446c0 8.29-6.718 16-15.008 16h-45.957c-8.29 0-15.008-7.71-15.008-16s6.718-16 15.008-16h45.957c8.288 0 15.008 7.71 15.008 16zM1024 112.827c0-23.653-19.175-42.827-42.827-42.827h-938.345c-23.653 0-42.827 19.175-42.827 42.827v124.343c0 23.655 19.175 42.83 42.827 42.83h938.345c23.653 0 42.827-19.175 42.827-42.827v-124.345zM940.709 176.999c0 8.29-6.718 15.001-15.008 15.001h-45.957c-8.29 0-15.008-6.711-15.008-15.001s6.718-15.001 15.008-15.001h45.957c8.288 0.002 15.008 6.713 15.008 15.001zM242 144h-42v470h42v-470zM824 158h-40v456h40v-456z" />
<glyph unicode="&#xe028;" d="M1010.526 104.725l-185.447 185.47c0 0-27.842-47.415-111.294-117.458 0-3.095 173.12-160.722 185.467-173.097 16.485-16.482 57.209-1.543 86.546 24.704 39.154 35.040 24.727 80.382 24.727 80.382zM812.706 475.664c0 163.881-132.859 296.743-296.752 296.743-163.881 0-296.741-132.859-296.741-296.743 0-163.906 132.857-296.745 296.741-296.745 163.893 0 296.752 132.839 296.752 296.745zM509.781 259.303c-119.504 0-216.379 96.866-216.379 216.359s96.875 216.377 216.379 216.377c119.495 0 216.377-96.887 216.377-216.377 0-119.493-96.885-216.359-216.377-216.359zM107.927 556.025c-24.725 42.402-18.549 129.833-18.549 129.833l-67.998-12.352c0 0-23.497-45.76 0-117.481 40.622-6.165 53.87-9.701 86.546 0zM163.563 457.102c-11.477 12.553-27.198 34.647-24.725 37.122-24.722-2.473-111.285 0-111.285 0s39.575-74.197 61.824-86.569c29.883-16.617 80.373-6.185 80.373-6.185s-4.926 54.263-6.187 55.632zM268.663 729.143c-32.667-21.211-117.458-37.097-117.458-37.097s-12.363-70.663 24.736-123.643c17.653 85.657 86.546 155.438 92.722 160.741zM107.927 828.041c0 0-51.934-21.013-74.185-86.549 1.239-1.216 49.461-6.165 49.461-6.165l24.725 92.713zM342.859 815.689c-21.202 56.521-80.263 79.655-80.375 80.361 0 0-41.518-0.885-80.373-18.562 0-0.862-36.213-55.634-24.725-117.458 128.939 19.447 186.345 53.010 185.472 55.659zM404.681 834.229l61.815 24.747c0 0-39.737 32.656-129.822 43.262 46.807-32.679 68.007-68.009 68.007-68.009zM392.309 518.928c-17.301-42.025 0-98.901 0-98.901l68.009 43.262c0 0 17.511 66.994 0 105.109 1.026-2.055-50.697-7.424-68.009-49.47zM571.598 611.682c-27.195 8.64-55.643-6.185-55.643-6.185s14.441-28.857 12.363-105.109c42.245 8.24 86.544 68.009 86.544 68.009s-16.059 34.624-43.264 43.285zM503.591 370.578c64.478 30.889 74.197 92.713 74.197 92.713l-61.833-43.262c0-0.002-12.363-48.567-12.363-49.451zM454.13 364.391c8.251 6.187 12.363 43.264 12.363 43.264l-49.449-24.745c0-0.002 28.843-24.704 37.086-18.519zM145.015 352.018c14.425-19.577 55.648-37.077 55.648-37.077l-18.551 43.264c0.002 0-18.549-8.263-37.097-6.187zM534.503 815.689c0 0-14.48 14.782-33.959 15.093-17.28 0.265-24.203-8.663-40.224-15.093 43.038 4.928 74.183 0 74.183 0z" />
<glyph unicode="&#xe029;" d="M645.6 801.6l61.897-61.877-272.329-272.329-117.593 105.214-278.512-290.889v-173.289l278.512 290.891 117.593-123.801 358.96 377.545 74.288-68.073 117.584 346.578-340.4-129.97zM633.209-33.929h160.919v631.294l-160.919-173.287v-458.007zM435.168-33.929h160.921v420.864l-160.921-173.289v-247.575zM237.115 250.77v-284.697h160.921l0.002 278.526c0 0-71.931 87.152-73.918 90.343-0.126-2.905-87.006-84.171-87.006-84.171zM324.121 334.942c0 0.027 0.009 0.062-0.009 0.075-0.059 0.048-0.050 0.016 0.009-0.075zM39.063-33.929h160.919v266.137l-160.919-173.289v-92.848z" />
<glyph unicode="&#xe02a;" d="M445.719 341.079h188.626l37.838 115.147h-258.457zM941.854 654.112h-864.027c-11.134 0-19.285-8.187-19.285-18.905v-507.077c0-10.711 8.151-17.518 19.285-17.518h864.027c11.131 0 21.289 6.805 21.289 17.518v507.079c0 10.715-10.158 18.903-21.289 18.903zM484.11 176.896c-20.754 0-37.614 16.864-37.614 37.616 0 20.759 16.859 37.618 37.614 37.618 20.757 0 37.618-16.859 37.618-37.618-0.002-20.752-16.862-37.616-37.618-37.616zM606.009 176.896c-20.752 0-37.611 16.864-37.611 37.616 0 20.759 16.859 37.618 37.611 37.618 20.757 0 37.618-16.859 37.618-37.618-0.002-20.752-16.862-37.616-37.618-37.616zM732.791 456.226l-49.365-150.229c-6.297-16.418-16.866-22.489-28.789-22.489h-230.283c-10.567 0-23.387 5.845-28.786 22.939l-57.573 207.351h-28.789c-15.883 0-28.786 12.903-28.786 28.784 0 15.883 12.903 28.789 28.786 28.789h50.825c7.646 0 23.84-2.923 29.769-28.789l7.785-28.784h314.624c12.375 0 28.789-9.671 28.789-28.786 0.002-7.195-3.819-14.846-8.208-28.786zM973.755 840.923h-925.662c-26.517 0-48.094-21.575-48.094-48.094v-692.736c0-26.519 21.577-48.091 48.094-48.091h925.662c26.519 0 48.091 21.575 48.091 48.091l0.002 692.736c-0.002 26.519-21.575 48.094-48.094 48.094zM924.238 759.762c15.717 0 28.457-12.743 28.457-28.457 0-15.717-12.741-28.457-28.457-28.457-15.719 0-28.459 12.741-28.459 28.457 0 15.712 12.741 28.457 28.459 28.457zM841.767 759.762c15.714 0 28.457-12.743 28.457-28.457 0-15.717-12.743-28.457-28.457-28.457-15.717 0-28.457 12.741-28.457 28.457-0.002 15.712 12.738 28.457 28.457 28.457zM757.835 761.221c15.719 0 28.459-12.743 28.459-28.457s-12.743-28.457-28.459-28.457-28.455 12.741-28.455 28.457 12.738 28.457 28.455 28.457zM45.001 751.614h632.942v-32.503h-632.942v32.503zM45.374 114.226v515.417l0.039 16.455c0 9.943 10.512 21.161 20.425 21.161l17.433 0.057-0.025 0.039 872.875-0.096c9.913 0 19.751-11.241 19.751-21.182v-529.335c-0.549-7.134-3.895-19.977-20.763-21.168l-889.726-0.002c-19.973 1.202-20.009 18.654-20.009 18.654z" />
<glyph unicode="&#xe02b;" d="M1207.296 886.272q-256-227.328-614.4-768l-117.76-183.296q-147.456 184.32-475.136 512l109.568 109.568 292.864-256q153.6 153.6 285.696 278.528t210.944 192.512 135.168 113.664 78.848 60.416l21.504 14.336q4.096 0 11.264-2.048t26.624-20.48 35.84-51.2z" horiz-adv-x="1207" />
<glyph unicode="&#xe02c;" d="M377.623 623.193c20.089 0 36.368 16.279 36.368 36.368s-16.281 36.368-36.368 36.368c-20.089 0-36.37-16.281-36.37-36.368s16.279-36.368 36.37-36.368zM377.623 377.694c20.089 0 36.368 16.297 36.368 36.37 0 20.089-16.281 36.375-36.368 36.375-20.089 0-36.37-16.288-36.37-36.375 0-20.073 16.279-36.37 36.37-36.37zM479.915 573.184c21.328 0 38.626 17.305 38.626 38.645s-17.298 38.642-38.626 38.642c-21.349 0-38.663-17.303-38.663-38.642s17.317-38.645 38.663-38.645zM376.901 570.446l-25.842-58.167 81.835-36.368 25.842 58.16-81.835 36.375zM275.326 554.999c21.349 0 38.642 17.296 38.642 38.642 0 21.337-17.294 38.645-38.642 38.645-21.346 0-38.642-17.305-38.642-38.645-0.002-21.344 17.294-38.642 38.642-38.642zM932.238 273.143c0 0 2.11 445.595 0 472.798-1.499 19.701-37.886 50.009-59.086 50.009h-713.735c-28.802-1.515-57.605-30.311-59.12-54.56-9.84-22.153 0-468.247 0-468.247l-68.185-45.467v-104.551c0 0 7.584-22.734 22.734-22.734s906.951-0.761 918.313 0c20.016 1.333 22.734 22.734 22.734 22.734v109.102l-63.655 40.917zM145.765 709.573c0 24.242 12.135 39.401 36.368 40.907 24.251 1.518 618.267 0 654.654 0 36.368 0 50-16.665 50-50v-372.786c0-27.287-10.617-42.437-45.467-45.467h-645.536c-28.802 0-50.021 13.65-50.021 45.467l0.002 381.879zM614.011 132.203h-195.472v36.368h195.472v-36.368zM918.606 195.856h-800.107v36.368h800.107v-36.368zM275.326 436.798c21.349 0 38.642 17.303 38.642 38.642 0 21.349-17.294 38.645-38.642 38.645-21.346 0-38.642-17.296-38.642-38.645-0.002-21.337 17.294-38.642 38.642-38.642zM451.687 466.553l336.427-140.93 24.583 58.695-336.409 140.937-24.601-58.702z" />
<glyph unicode="&#xe02d;" d="M810.667 533.333h-213.335v213.335h-213.333v-213.335h-213.333v-213.333h213.333v-213.333h213.333v213.333h213.335z" />
<glyph unicode="&#xe02e;" d="M853.333 661.333l-128 128-192-192-192 192-128-128 192-192-192-192 128-128 192 192 192-192 128 128-192 192z" />
<glyph unicode="&#xe02f;" d="M853.333 177.749h-1.621c-13.013 59.563-105.045 135.595-254.379 157.355v48.896h-5.205c45.525 41.173 90.539 112.171 90.539 213.333 0 117.845-42.667 213.333-170.667 213.333s-170.667-95.488-170.667-213.333c0-101.163 45.013-172.16 90.539-213.333h-5.205v-48.896c-149.333-21.76-241.365-97.749-254.379-157.355h-1.621c0-1.579 0.555-3.2 0.981-4.821-0.427-3.157-0.981-6.357-0.981-9.344h5.717c26.795-35.499 148.267-78.251 335.616-78.251s308.821 42.752 335.616 78.251h5.717c0 2.987-0.555 6.187-0.981 9.344 0.427 1.621 0.981 3.243 0.981 4.821z" />
<glyph unicode="&#xe030;" d="M788.011 161.451c-10.539 49.024-85.333 111.616-206.677 129.536v44.587c35.499 34.432 69.333 91.264 69.333 171.435 0 96.978-34.647 175.657-138.667 175.657s-138.667-78.677-138.667-175.659c0-80.171 33.835-137.003 69.333-171.435v-44.587c-121.344-17.92-196.139-80.512-206.677-129.536l-1.321 0.002c0-1.28 0.469-2.688 0.853-4.011l3.797-7.723c21.76-29.141 120.491-64.384 272.683-64.384s250.923 35.243 272.725 64.427l3.797 7.723c0.384 1.323 0.853 2.688 0.853 4.011l-1.362-0.002zM1001.429 329.557c-9.728 45.312-78.763 103.040-190.763 119.595l0.002 41.088c32.811 31.787 64 84.267 64 158.251 0 89.6-32 162.176-128 162.176-80.128 0-99.925-14.507-110.635-92.117 52.011-40.405 80.469-111.189 80.469-207.531 0-97.237-21.163-150.144-55.168-191.019 42.667 0 99.968-55.424 139.904-87.68 144.128 3.669 178.133 60.928 197.163 86.4l3.499 7.083c0.341 1.237 0.768 2.517 0.768 3.712h-1.239zM277.333 810.667c-96 0-128-72.576-128-162.176 0-73.984 31.189-126.464 64-158.251v-41.131c-112-16.555-181.035-74.283-190.763-119.595l-1.237 0.002c0-1.195 0.427-2.475 0.768-3.712l3.499-7.040c19.029-25.515 53.077-82.731 197.205-86.4 39.895 32.213 97.195 87.637 139.863 87.637-34.048 40.875-55.168 93.739-55.168 191.019 0 96.341 28.501 167.125 80.512 207.531-10.711 77.609-30.551 92.117-110.679 92.117z" />
<glyph unicode="&#xe031;" d="M213.333 405.333h170.667v-256h-170.667zM426.667 746.667h170.665v-593.792h-170.665zM640 576h170.667v-423.125h-170.667z" />
<glyph unicode="&#xe032;" d="M725.333 533.333h-42.667l0.002 85.335c0 94.123-76.544 170.667-170.667 170.667s-170.667-76.546-170.667-170.667v-85.333l-42.665-0.002c-23.467 0-42.667-19.2-42.667-42.667v-298.667c0-23.467 19.2-42.667 42.667-42.667h426.667c23.467 0 42.667 19.2 42.667 42.667v298.667c-0.002 23.467-19.202 42.667-42.67 42.667zM426.667 618.667c0 47.061 38.272 85.333 85.333 85.333s85.333-38.272 85.333-85.333v-85.333h-170.667l0.002 85.333z" />
<glyph unicode="&#xe033;" d="M661.333 789.333c-82.345 0-149.333-66.985-149.333-149.333v-106.667h-256c-23.467 0-42.667-19.2-42.667-42.667v-298.667c0-23.467 19.2-42.667 42.667-42.667h384c23.467 0 42.667 19.2 42.667 42.667v298.667c0 23.467-19.2 42.667-42.667 42.667h-42.667v106.667c0 35.285 28.715 64 64 64s64-28.715 64-64v-149.333h85.333l0.002 149.333c0 82.347-66.987 149.333-149.335 149.333z" />
<glyph unicode="&#xe034;" d="M512 960v0 0zM768 896q106 0 181.001 18.501t75.001 45.499v-256h-1024v256q0-27.001 75.001-45.499t181.001-18.501 181.001 18.501 75.001 45.499q0-27.001 75.001-45.499t181.001-18.501zM512-64q-94 27.001-168.501 65.499t-125.001 78.501-88.501 97.001-59.499 104-36.501 116.501-21.499 118-12.501 124.501h1024q-6-76-12.501-124.501t-21.499-118-36.501-116.501-59.499-104-88.501-97.001-125.001-78.501-168.501-65.499z" />
<glyph unicode="&#xe035;" d="M1024 192v-128q0-48-124-83.499t-310-42.501q-7.001-2-14-2h-128q-7.001 0-14 2-186 7.001-310 42.501t-124 83.499v128q0 8 6 19.001 62-37.001 201.001-60-15.001 18-15.001 41.001v28q-89.001 18-140.501 44t-51.499 56v128q0 8 6 18 49.001-28 150.501-49.001t227.499-29.001v64q-167.001 11.001-275.499 45.499t-108.501 78.501v128q0 8 6 18 62-36 202.501-59.001t303.499-23.001 303.499 23.001 202.501 59.001q6-10 6-18v-128q0-44-108.501-78.501t-275.499-45.499v-64q126 8 227.499 29.001t150.501 49.001q6-10 6-18v-128q0-30-51.001-56t-141.001-44v-28q0-23.001-15.001-41.001 139.001 23.001 201.001 60 6-11.001 6-19.001zM704 320h-128v128q0 26-19.001 45.001t-45.001 19.001-45.001-19.001-19.001-45.001v-128h-128q-26 0-45.001-19.001t-19.001-45.499 19.001-45.001 45.001-18.501h128v-128q0-27.001 19.001-45.499t45.001-18.501 45.001 18.501 19.001 45.499v128h128q26 0 45.001 18.501t19.001 45.001-19.001 45.499-45.001 19.001zM512 704q-139.001 0-257.001 17.001t-186.501 46.501-68.501 64.501 68.501 64.501 186.501 46.501 257.001 17.001 257.001-17.001 186.501-46.501 68.501-64.501-68.501-64.501-186.501-46.501-257.001-17.001z" />
<glyph unicode="&#xe036;" d="M793.001 148q158 23.001 225.001 63.001 6-11.001 6-19.001v-128q0-35.001-68.501-64.501t-186.501-46.501-257.001-17.001-257.001 17.001-186.501 46.501-68.501 64.501v128q0 8 6 19.001 67.001-40 224-63.001 5.001 11.001 12 19.001l39.001 39.001q-127.001 16-204 46.501t-77.001 67.499v128q0 8 6 18 66-38 220-61.001 5.001 19.001 16 31.001l28 27.001q-123.001 17.001-196.501 47.001t-73.499 66v128q0 8 6 18 62-36 202.501-59.001t303.499-23.001 303.499 23.001 202.501 59.001q6-10 6-18v-128q0-36-74-66.501t-196-46.501l27.001-27.001q11.001-12 16-32 155.001 23.001 221.001 62 6-10 6-18v-128q0-37.001-77.499-67.499t-204.501-46.501l39.001-39.001q7.001-8 12-19.001zM686 344q18 18 18 43.499t-18 43.499-43.499 18-43.499-18l-88-87.001-87.001 87.001q-18 18-43.499 18t-43.499-18-18-43.499 18-43.499l87.001-88-87.001-87.001q-18-18-18-43.499t18-43.499 43.499-18 43.499 18l87.001 87.001 88-87.001q18-18 43.499-18t43.499 18 18 43.499-18 43.499l-87.001 87.001zM512 704q-139.001 0-257.001 17.001t-186.501 46.501-68.501 64.501 68.501 64.501 186.501 46.501 257.001 17.001 257.001-17.001 186.501-46.501 68.501-64.501-68.501-64.501-186.501-46.501-257.001-17.001z" />
<glyph unicode="&#xe037;" d="M881.001 638q-10 2-15.001 2-37.001 0-64-25.001-61.001 27.001-114 44-87.001 28-182 46-9.001 24-27.001 40 25.001 118 67.001 214 126-9.001 231.499-73.001t170.501-168q-37.001-40-67.001-80zM417.001 768q-26 0-49.001-14-81.001 60-163.001 102 124 94 278 103.001-39.001-87.001-63.001-191.001h-3.001zM70 706q34 57.001 86 108 68-35.001 141.001-86-129.001 3.001-227.001-22zM321.001 666q2-31.001 21.499-54.501t48.501-31.499q-6-70-6-133.001 0-44 3.001-101.001-22-7.001-39.001-24-54 21.001-104 48 11.001 22 11.001 45.001 0 40-28 68t-68 28q-44 0-73.001-34-42 38-75.001 79.001 9.001 43.001 27.001 85.001 122 34 282 25.001zM65.001 406.999q3.001-37.001 30.501-62.501t64.501-25.499q11.001 0 24 4 64-37.001 137.001-64v-4q0-39.001 26.501-66.501t65.499-29.499q25.001-122 70-223.001-100 6-189.001 48.501t-153.499 110.501-102.501 160-38 192q0 1.001 1.001 27.001 28-35.001 64-67.001zM501.001 210q72-13.001 145.001-17.001 7.001-20 22-37.001-23.001-105.001-28-204-51.001-13.001-94-16-47.001 107.001-73.001 242 18 12 28 32zM811.001 162q13.001 16 18 34 73.001 6 141.001 19.001-48-94-132-163.001-9.001 52-27.001 110zM648 256.999q-70 4-138 18-11.001 50-57.001 69.001-4 59.001-4 103.001 0 66 6 137.001 2 0 5.001 2t4 2q39.001-38 68-70 87.001-96 148-218-22-17.001-32-43.001zM737.001 126.999q2 0 11.001 1.001 17.001-61.001 25.001-121.001-29.001-17.001-70-34 7.001 78 24 155.001 8-1.001 10-1.001zM732 366q-1.001-2-2.501-6t-2.501-6q-63.001 114-148 207.001-31.001 35.001-74 76 1.001 0 1.499 1.499l0.501 1.499q84-17.001 161.001-42 47.001-15.001 103.001-40-2-10-2-15.001 0-30 18-55.001-33.001-63.001-55.001-122zM779.001 308q12 35.001 12 36 20 50 50 107.001 13.001-4 25.001-4 34 0 61.001 23.001 49.001-34 96-76-6-57.001-24-110-82-17.001-173.001-24-13.001 32-47.001 48zM962 544q0 33.001-22 60 21.001 27.001 42 49.001 36-82 42-169.001-33.001 25.001-64 45.001 2 9.001 2 15.001z" />
<glyph unicode="&#xe038;" d="M832-64h-640q-53.001 0-90.501 37.499t-37.499 90.501v768q0 53.001 37.499 90.501t90.501 37.499h640q53.001 0 90.501-37.499t37.499-90.501v-768q0-53.001-37.499-90.501t-90.501-37.499zM832 224q0 32-19.001 57.001t-49.001 34q68 87.001 68 197.001 0 87.001-43.001 160.501t-116.501 116.501-160.501 43.001-160.501-43.001-116.501-116.501-43.001-160.501q0-110 68-197.001-30-9.001-49.001-34t-19.001-57.001v-64q0-40 28-68t68-28h448q40 0 68 28t28 68v64zM512 384q-53.001 0-90.501 37.499t-37.499 90.501 37.499 90.501 90.501 37.499 90.501-37.499 37.499-90.501-37.499-90.501-90.501-37.499z" />
<glyph unicode="&#xe039;" d="M512-64q-84 42-152 89.001t-119.001 90-89.499 102-64 102.501-42.501 114.501-26 116.501-13.499 130.501-5.001 133.001-0.501 146q0-26 75.001-45.001t181.001-19.001 181.001 19.001 75.001 45.001q0-26 75.001-45.001t181.001-19.001 181.001 19.001 75.001 45.001q0-98-0.501-146t-5.001-133.001-13.499-130.501-26-116.501-42.501-114.501-64-102.501-89.499-102-119.001-90-152-89.001zM512 832v0q0-26-56.501-45.001t-135.499-19.001q-54 0-107.001 9.001t-85.001 24q0-79.001 2-127.001t9.499-114.501 22.501-109.499 43.001-97.001 68.501-94 100.501-83.001 138-80v736zM512 960v0 0z" />
<glyph unicode="&#xe03a;" d="M969.001 832h-76l-122-595.001q-5.001-19.001-21.499-32t-34.501-13.001h-547.001q-19.001 0-35.499 13.001t-21.499 32l-98 377.001q-10 36 3.001 63.001t40 27.001l709.001 123.001 18 89.001q5.001 18 21.499 31.001t34.501 13.001h130q27.001 0 45.499-18.501t18.501-45.001-19.001-45.499-45.001-19.001zM297.001 128q40 0 68-28t28-68-28-68-68-28-68 28-28 68 28 68 68 28zM617.001 128q40 0 68-28t28-68-28-68-68-28-68 28-28 68 28 68 68 28z" />
<glyph unicode="&#xe03b;" d="M896-64h-704q-27.001 0-45.499 18.501t-18.501 45.499v895.001q0 27.001 18.501 45.499t45.499 18.501h384v-352q0-13.001 9.001-22.501t23.001-9.499h351.001v-575.001q0-27.001-18.501-45.499t-44.501-18.501zM761.001 320l-179.001 174q-17.001 18-42 18t-43.001-18l-85.001-85.001t-88-89.001q-11.001-10 1.499-37.001t34.501-27.001h88v-159.001q0-14 9.001-23.001t23.001-9.001h128q13.001 0 22.501 9.001t9.499 23.001v159.001h84q25.001 0 38 25.499t-1.001 38.501zM640 960q25.001 0 44-18l256-257.001q19.001-19.001 19.001-46h-319.001v321.001z" />
<glyph unicode="&#xe03c;" d="M895.001-64h-703.001q-27.001 0-45.499 18.501t-18.501 45.499v895.001q0 27.001 18.501 45.499t45.499 18.501h384v-352q0-13.001 9.001-22.501t23.001-9.499h351.001v-575.001q0-27.001-18.501-45.499t-45.499-18.501zM724 320h-84v160q0 14-9.499 23.001t-22.501 9.001h-128q-13.001 0-22.501-9.001t-9.499-23.001v-160h-87.001q-23.001 0-35.001-26.501t-2-37.499l89.001-89.001t85.001-84q17.001-18 42-18t42 18l179.001 173.001q14 14 1.001 39.001t-38 25.001zM640 960q26 0 44-18l256-257.001q19.001-19.001 19.001-46h-319.001v321.001z" />
<glyph unicode="&#xe03d;" d="M896-64h-768q-53.001 0-90.501 37.499t-37.499 90.501v96q0 26 18.501 45.001t45.001 19.001 45.499-19.001 19.001-45.001v-32q0-27.001 18.501-45.499t45.499-18.501h640q26 0 45.001 18.501t19.001 45.499v32q0 26 18.501 45.001t45.001 19.001 45.499-19.001 19.001-45.001v-96q0-53.001-37.499-90.501t-90.501-37.499zM545.001 206q-14-14-33.001-14t-33.001 14l-341.001 345.001q-12 13.001-8.501 19.001t18.501 6h236v320q0 27.001 18.501 45.499t45.499 18.501h128q27.001 0 45.499-18.501t18.501-45.499v-320h235.001q15.001 0 19.001-6t-8-19.001z" />
<glyph unicode="&#xe03e;" d="M896-64h-768q-53.001 0-90.501 37.499t-37.499 90.501v96q0 26 19.001 45.001t45.001 19.001 45.001-19.001 19.001-45.001v-32q0-27.001 18.501-45.499t45.499-18.501h640q27.001 0 45.499 18.501t18.501 45.499v32q0 26 19.001 45.001t45.001 19.001 45.001-19.001 19.001-45.001v-96q0-53.001-37.499-90.501t-90.501-37.499zM875.001 576h-235.001v-320q0-27.001-18.501-45.499t-45.499-18.501h-128q-27.001 0-45.499 18.501t-18.501 45.499v320h-236q-15.001 0-18.501 6t8.501 19.001l341.001 345.001q14 14 33.001 14t33.001-14l341.001-345.001q12-13.001 8-19.001t-19.001-6z" />
<glyph unicode="&#xe03f;" d="M1014 640h-115.001v-384q0-26-18.501-44.501t-45.499-18.501h-128q-27.001 0-45.499 18.501t-18.501 44.501v384h-114q-9.001 0-12.501 18t4.501 29.001l228 262q9.001 11.001 22 11.001t22-11.001l228-262q8-11.001 5.001-29.001t-12-18zM281.001-53.001q-9.001-11.001-22-11.001t-22 11.001l-228 262q-9.001 11.001-5.499 29.001t12.501 18h115.001v384q0 27.001 18.501 45.499t45.499 18.501h128q27.001 0 45.499-18.501t18.501-45.499v-384h114q9.001 0 12.501-18t-4.501-29.001z" />
<glyph unicode="&#xe040;" d="M1085.714 812.571q11.429-4.571 11.429-17.143v-694.857q0-12.571-11.429-17.143-4.571-1.143-6.857-1.143-6.857 0-13.143 5.143l-334.286 334.857v-175.429q0-68-48.286-116.286t-116.286-48.286h-402.286q-68 0-116.286 48.286t-48.286 116.286v402.286q0 68 48.286 116.286t116.286 48.286h402.286q68 0 116.286-48.286t48.286-116.286v-175.429l334.286 334.857q9.143 8.571 20 4z" horiz-adv-x="1097" />
<glyph unicode="&#xe041;" d="M219.429 82.286h512v146.286h-512v-146.286zM219.429 448h512v219.429h-91.429q-22.857 0-38.857 16t-16 38.857v91.429h-365.714v-365.714zM877.714 411.429q0 14.857-10.857 25.714t-25.714 10.857-25.714-10.857-10.857-25.714 10.857-25.714 25.714-10.857 25.714 10.857 10.857 25.714zM950.857 411.429v-237.714q0-7.429-5.429-12.857t-12.857-5.429h-128v-91.429q0-22.857-16-38.857t-38.857-16h-548.571q-22.857 0-38.857 16t-16 38.857v91.429h-128q-7.429 0-12.857 5.429t-5.429 12.857v237.714q0 45.143 32.286 77.429t77.429 32.286h36.571v310.857q0 22.857 16 38.857t38.857 16h384q22.857 0 50.286-11.429t43.429-27.429l86.857-86.857q16-16 27.429-43.429t11.429-50.286v-146.286h36.571q45.143 0 77.429-32.286t32.286-77.429z" horiz-adv-x="951" />
<glyph unicode="&#xe042;" d="M365.714 630.857q0-45.714-32-77.714t-77.714-32-77.714 32-32 77.714 32 77.714 77.714 32 77.714-32 32-77.714zM950.857 411.429v-256h-804.571v109.714l182.857 182.857 91.429-91.429 292.571 292.571zM1005.714 813.714h-914.286q-7.429 0-12.857-5.429t-5.429-12.857v-694.857q0-7.429 5.429-12.857t12.857-5.429h914.286q7.429 0 12.857 5.429t5.429 12.857v694.857q0 7.429-5.429 12.857t-12.857 5.429zM1097.143 795.429v-694.857q0-37.714-26.857-64.571t-64.571-26.857h-914.286q-37.714 0-64.571 26.857t-26.857 64.571v694.857q0 37.714 26.857 64.571t64.571 26.857h914.286q37.714 0 64.571-26.857t26.857-64.571z" horiz-adv-x="1097" />
<glyph unicode="&#xe043;" d="M329.143 448q0-14.857-10.857-25.714l-256-256q-10.857-10.857-25.714-10.857t-25.714 10.857-10.857 25.714v512q0 14.857 10.857 25.714t25.714 10.857 25.714-10.857l256-256q10.857-10.857 10.857-25.714z" horiz-adv-x="366" />
<glyph unicode="&#xe044;" d="M365.714 704v-512q0-14.857-10.857-25.714t-25.714-10.857-25.714 10.857l-256 256q-10.857 10.857-10.857 25.714t10.857 25.714l256 256q10.857 10.857 25.714 10.857t25.714-10.857 10.857-25.714z" horiz-adv-x="366" />
<glyph unicode="&#xe045;" d="M585.143 265.143q0-14.857-10.857-25.714t-25.714-10.857h-512q-14.857 0-25.714 10.857t-10.857 25.714 10.857 25.714l256 256q10.857 10.857 25.714 10.857t25.714-10.857l256-256q10.857-10.857 10.857-25.714z" horiz-adv-x="585" />
<glyph unicode="&#xe046;" d="M585.143 557.714q0-14.857-10.857-25.714l-256-256q-10.857-10.857-25.714-10.857t-25.714 10.857l-256 256q-10.857 10.857-10.857 25.714t10.857 25.714 25.714 10.857h512q14.857 0 25.714-10.857t10.857-25.714z" horiz-adv-x="585" />
<glyph unicode="&#xe047;" d="M585.143 338.286q0-14.857-10.857-25.714l-256-256q-10.857-10.857-25.714-10.857t-25.714 10.857l-256 256q-10.857 10.857-10.857 25.714t10.857 25.714 25.714 10.857h512q14.857 0 25.714-10.857t10.857-25.714zM585.143 557.714q0-14.857-10.857-25.714t-25.714-10.857h-512q-14.857 0-25.714 10.857t-10.857 25.714 10.857 25.714l256 256q10.857 10.857 25.714 10.857t25.714-10.857l256-256q10.857-10.857 10.857-25.714z" horiz-adv-x="585" />
<glyph unicode="&#xe048;" d="M585.143 338.286q0-14.857-10.857-25.714l-256-256q-10.857-10.857-25.714-10.857t-25.714 10.857l-256 256q-10.857 10.857-10.857 25.714t10.857 25.714 25.714 10.857h512q14.857 0 25.714-10.857t10.857-25.714z" horiz-adv-x="585" />
<glyph unicode="&#xe049;" d="M585.143 557.714q0-14.857-10.857-25.714t-25.714-10.857h-512q-14.857 0-25.714 10.857t-10.857 25.714 10.857 25.714l256 256q10.857 10.857 25.714 10.857t25.714-10.857l256-256q10.857-10.857 10.857-25.714z" horiz-adv-x="585" />
<glyph unicode="&#xe04a;" d="M877.714 448q0-89.143-34.857-170.286t-93.714-140-140-93.714-170.286-34.857q-102.286 0-192.286 43.429t-152 121.714-84.286 178.286q-1.714 8 4 15.429 5.143 6.857 14.286 6.857h113.714q13.143 0 17.143-13.143 28.571-92.571 105.714-149.429t173.714-56.857q59.429 0 113.429 23.143t93.429 62.571 62.571 93.429 23.143 113.429-23.143 113.429-62.571 93.429-93.429 62.571-113.429 23.143q-56 0-107.429-20.286t-91.429-58l78.286-78.857q17.714-17.143 8-39.429-9.714-22.857-33.714-22.857h-256q-14.857 0-25.714 10.857t-10.857 25.714v256q0 24 22.857 33.714 22.286 9.714 39.429-8l74.286-73.714q61.143 57.714 139.714 89.429t162.571 31.714q89.143 0 170.286-34.857t140-93.714 93.714-140 34.857-170.286z" horiz-adv-x="878" />
<glyph unicode="&#xe04b;" d="M975.31 382.062c2.811 20.8 4.43 41.945 4.43 63.472 0 258.311-210.542 467.744-470.206 467.744-25.808 0-51.111-2.119-75.733-6.16-44.144 28.768-96.683 45.534-153.223 45.534-155.047 0-280.578-125.616-280.578-280.61 0-56.395 16.599-108.789 45.179-152.777-3.849-24.034-5.817-48.647-5.817-73.719 0-258.352 210.434-467.765 470.169-467.765 29.314 0 57.854 2.855 85.593 7.865 43.099-26.738 93.867-42.297 148.293-42.297 155.003 0 280.583 125.648 280.583 280.629-0.007 58.585-17.92 113.056-48.69 158.085zM553.481 100.807c-149.41-7.783-219.328 25.273-283.378 85.383-71.529 67.134-42.795 143.707 15.479 147.602 58.245 3.888 93.214-66.025 124.299-85.472 31.047-19.376 149.189-63.52 211.589 7.815 67.952 77.657-45.189 117.84-128.119 130.005-118.407 17.531-267.899 81.584-256.27 207.815 11.632 126.149 107.163 190.827 207.701 199.952 128.153 11.634 211.582-19.415 277.57-75.719 76.299-65.058 35.015-137.787-13.598-143.639-48.425-5.817-102.809 107.008-209.582 108.704-110.055 1.728-184.434-114.521-48.571-147.568 135.931-33.010 281.499-46.571 333.922-170.834 52.457-124.277-81.509-256.251-231.042-264.043z" />
<glyph unicode="&#xe04c;" d="M559.065 896c0 0-200.955 0-267.941 0-120.119 0-233.168-91.006-233.168-196.423 0-107.726 81.881-194.665 204.087-194.665 8.498 0 16.757 0.169 24.841 0.752-7.929-15.186-13.602-32.288-13.602-50.041 0-29.938 16.103-54.21 36.469-74.025-15.385 0-30.242-0.448-46.453-0.448-148.779 0.002-263.298-94.757-263.298-193.019 0-96.777 125.543-157.314 274.334-157.314 169.623 0 263.305 96.245 263.305 193.029 0 77.6-22.896 124.073-93.687 174.135-24.217 17.143-70.53 58.837-70.53 83.344 0 28.72 8.197 42.869 51.429 76.647 44.311 34.624 75.671 83.303 75.671 139.915 0 67.406-30.021 133.097-86.373 154.773h84.953l59.963 43.342zM465.481 240.542c2.126-8.971 3.285-18.206 3.285-27.627 0-78.199-50.393-139.31-194.974-139.31-102.841 0-177.115 65.104-177.115 143.301 0 76.642 92.126 140.443 194.965 139.333 24-0.254 46.368-4.117 66.67-10.69 55.824-38.827 95.874-60.763 107.17-105.006zM300.818 532.224c-69.038 2.064-134.635 77.225-146.553 167.861-11.915 90.665 34.37 160.041 103.387 157.991 69.010-2.073 134.638-74.814 146.558-165.458 11.909-90.661-34.389-162.459-103.392-160.393zM832 704v192h-64v-192h-192v-64h192v-192h64v192h192v64z" />
<glyph unicode="&#xe04d;" d="M743.029 576h-135.294l-95.733-141.033-95.739 141.033h-135.289l162.162-242.464-182.974-269.536h262.24v91.577h-60.555l50.155 74.992 111.397-166.569h140.441l-182.976 269.536zM903.433 760.569l-142.864 142.862c-31.113 31.113-92.569 56.569-136.569 56.569h-480c-44 0-80-36-80-80v-864c0-44 36-80 80-80h736c44 0 80 36 80 80v608c0 44-25.456 105.458-56.567 136.569zM858.178 715.314c3.129-3.129 6.249-6.974 9.28-11.314h-163.458v163.456c4.341-3.031 8.183-6.151 11.314-9.28l142.864-142.862zM896 16c0-8.672-7.328-16-16-16h-736c-8.672 0-16 7.328-16 16v864c0 8.672 7.328 16 16 16h480c4.832 0 10.254-0.61 16-1.703v-254.297h254.295c1.095-5.746 1.703-11.166 1.703-16l0.002-608z" />
<glyph unicode="&#xe04e;" d="M639.778 484.107h44.213l-51.013-226.178-66.327 318.011h-106.549l-77.115-318.011-57.815 318.011h-111.394l113.093-511.883h108.837l76.295 302.709 68.256-302.709h100.336l129.63 511.883h-170.446zM903.433 760.569l-142.864 142.862c-31.113 31.113-92.569 56.569-136.569 56.569h-480c-44 0-80-36-80-80v-864c0-44 36-80 80-80h736c44 0 80 36 80 80v608c0 44-25.456 105.458-56.567 136.569zM858.178 715.314c3.129-3.129 6.249-6.974 9.28-11.314h-163.458v163.456c4.341-3.031 8.183-6.151 11.314-9.28l142.864-142.862zM896 16c0-8.672-7.328-16-16-16h-736c-8.672 0-16 7.328-16 16v864c0 8.672 7.328 16 16 16h480c4.832 0 10.254-0.61 16-1.703v-254.297h254.295c1.095-5.746 1.703-11.166 1.703-16l0.002-608z" />
<glyph unicode="&#xe04f;" d="M842.011 370.519c-13.648 13.447-43.913 20.567-89.973 21.173-31.177 0.343-68.702-2.402-108.169-7.929-17.673 10.199-35.893 21.294-50.187 34.658-38.462 35.915-70.567 85.771-90.576 140.594 1.305 5.12 2.414 9.621 3.447 14.213 0 0 21.666 123.061 15.929 164.665-0.791 5.705-1.273 7.362-2.807 11.797l-1.881 4.834c-5.895 13.593-17.447 27.993-35.566 27.207l-10.917 0.345c-20.201 0-36.665-10.331-40.985-25.774-13.138-48.434 0.418-120.891 24.983-214.738l-6.288-15.287c-17.589-42.875-39.63-86.059-59.079-124.158l-2.528-4.953c-20.459-40.039-39.024-74.025-55.854-102.823l-17.376-9.189c-1.264-0.667-31.045-16.418-38.027-20.645-59.257-35.383-98.521-75.541-105.035-107.417-2.073-10.169-0.53-23.186 10.014-29.214l16.807-8.457c7.289-3.653 14.978-5.502 22.855-5.502 42.203 0 91.2 52.571 158.697 170.366 77.929 25.367 166.654 46.457 244.414 58.089 59.257-33.369 132.142-56.546 178.142-56.546 8.167 0 15.211 0.777 20.933 2.295 8.823 2.336 16.258 7.367 20.793 14.192 8.926 13.433 10.734 31.931 8.311 50.875-0.727 5.632-5.216 12.583-10.075 17.328zM211.646 145.952c7.696 21.042 38.16 62.645 83.205 99.557 2.832 2.295 9.808 8.832 16.194 14.903-47.102-75.125-78.647-105.067-99.399-114.459zM478.434 760.313c13.566 0 21.285-34.194 21.925-66.254s-6.857-54.56-16.158-71.209c-7.703 24.649-11.426 63.499-11.426 88.903 0 0.002-0.567 48.56 5.659 48.56zM398.853 322.505c9.449 16.917 19.282 34.757 29.33 53.678 24.491 46.315 39.959 82.555 51.479 112.345 22.91-41.685 51.445-77.12 84.985-105.513 4.185-3.543 8.617-7.102 13.273-10.649-68.21-13.495-127.163-29.909-179.067-49.861zM828.903 326.347c-4.153-2.599-16.055-4.101-23.707-4.101-24.706 0-55.271 11.294-98.126 29.666 16.469 1.218 31.561 1.838 45.099 1.838 24.782 0 32.119 0.107 56.35-6.071s24.539-18.734 20.384-21.333zM903.433 760.569l-142.864 142.862c-31.113 31.113-92.569 56.569-136.569 56.569h-480c-44 0-80-36-80-80v-864c0-44 36-80 80-80h736c44 0 80 36 80 80v608c0 44-25.456 105.458-56.567 136.569zM858.178 715.314c3.129-3.129 6.249-6.974 9.28-11.314h-163.458v163.456c4.341-3.031 8.183-6.151 11.314-9.28l142.864-142.862zM896 16c0-8.672-7.328-16-16-16h-736c-8.672 0-16 7.328-16 16v864c0 8.672 7.328 16 16 16h480c4.832 0 10.254-0.61 16-1.703v-254.297h254.295c1.095-5.746 1.703-11.166 1.703-16l0.002-608z" />
<glyph unicode="&#xe050;" d="M955.008 192c43.872 75.36 68.992 162.496 68.992 256 0 282.752-229.248 512-512 512s-512-229.248-512-512 229.248-512 512-512c141.376 0 269.376 57.248 361.984 150.016l-90.624 90.624c-69.472-69.632-165.472-112.64-271.36-112.64-211.744 0-384 172.256-384 384s172.256 384 384 384 384-172.256 384-384c0-45.504-8.736-88.992-23.36-129.504l-1.024 1.504h-103.616v382.624h-256c-141.376 0-256-114.624-256-256s114.624-256 256-256c58.752 0 112.256 20.64 155.488 53.888 23.264-31.008 58.752-52.512 100.512-52.512h187.008zM640 511.744v-65.12c0-70.624-57.504-128-128-128s-128 57.376-128 128 57.504 128 128 128h128v-62.88z" />
<glyph unicode="&#xe051;" d="M465.056 338.496l-338.496 338.496c-168.736-194.752-168.736-482.24 0-676.992l338.496 338.496zM512 384v576c-156.992-9.76-298.496-69.76-412.704-163.264l412.704-412.736zM576.064 831.488v-473.984l-332.256-332.256c74.496-54.752 164.256-89.248 263.52-89.248 250.176 0 452.672 202.496 452.672 452.256 0 226.496-167.264 409.984-383.936 443.232z" horiz-adv-x="960" />
<glyph unicode="&#xe052;" d="M439.712 339.264l-320.256 320c-159.264-184.128-159.264-455.904 0-640l320.256 320zM640.032 826.944v-468.672l-331.264-331.392c74.496-55.616 164.992-90.88 264.992-90.88 248.736 0 450.24 201.248 450.24 449.888 0.032 225.856-167.424 408.864-383.968 441.056zM512 447.488v512.512c-139.488-8.64-265.504-62.016-367.264-145.184l367.264-367.328z" horiz-adv-x="1022" />
<glyph unicode="&#xe053;" d="M831.84 349.824h-42.368c-6.88-24.928-16.736-48.576-29.376-70.496l39.168-39.136c25.056-25.056 25.056-65.696 0-90.752l-22.688-22.688c-25.056-25.056-65.696-25.056-90.752 0l-39.424 39.392c-21.856-12.448-45.408-22.144-70.208-28.896v-41.088c0-35.424-28.704-64.16-64.16-64.16h-32.064c-35.424 0-64.192 28.704-64.192 64.16v41.088c-24.768 6.752-48.352 16.48-70.208 28.896l-39.392-39.392c-25.024-25.056-65.664-25.056-90.72 0l-22.72 22.688c-25.056 25.056-25.056 65.696 0 90.752l39.168 39.136c-12.64 21.952-22.496 45.568-29.408 70.496h-42.336c-35.456 0-64.16 28.704-64.16 64.128v32.096c0 35.424 28.704 64.16 64.16 64.16h41.856c6.624 24.672 16.096 48.16 28.384 69.952l-37.664 37.632c-25.056 25.056-25.056 65.696 0 90.752l22.688 22.656c25.056 25.056 65.696 25.056 90.72 0l36.896-36.896c22.592 13.152 46.976 23.392 72.704 30.4v43.136c0.032 35.456 28.8 64.16 64.224 64.16h32.064c35.424 0 64.16-28.704 64.16-64.16v-43.104c25.792-7.040 50.144-17.28 72.704-30.432l36.896 36.896c25.056 25.056 65.696 25.056 90.752 0l22.688-22.656c25.056-25.056 25.056-65.696 0-90.752l-37.632-37.632c12.288-21.792 21.76-45.28 28.416-69.984h41.856c35.424 0 64.16-28.736 64.16-64.16v-32.096c-0.032-35.392-28.736-64.096-64.192-64.096zM496 605.44c-97.44 0-176.448-79.008-176.448-176.448s79.008-176.448 176.448-176.448 176.448 79.008 176.448 176.448-79.008 176.448-176.448 176.448zM496 350.816c-44.288 0-80.224 35.872-80.224 80.192 0 44.288 35.936 80.192 80.224 80.192s80.192-35.904 80.192-80.192c0-44.32-35.904-80.192-80.192-80.192z" />
<glyph unicode="&#xe054;" d="M680.576 254.752l22.688 22.688c25.056 25.056 25.056 65.696 0 90.752l-39.168 39.136c12.608 21.952 22.496 45.568 29.376 70.496h42.368c35.424 0 64.16 28.736 64.16 64.16v32.064c0 35.424-28.704 64.16-64.16 64.16h-41.856c-6.656 24.672-16.096 48.16-28.384 69.952l37.664 37.632c25.056 25.056 25.056 65.696 0 90.752l-22.688 22.656c-25.056 25.056-65.696 25.056-90.752 0l-36.896-36.896c-22.56 13.152-46.944 23.392-72.704 30.432v43.104c-0.032 35.456-28.768 64.16-64.192 64.16h-32.064c-35.424 0-64.192-28.704-64.192-64.16v-43.104c-25.76-7.040-50.112-17.28-72.704-30.432l-36.928 36.928c-25.024 25.056-65.664 25.056-90.72 0l-22.688-22.656c-25.056-25.056-25.056-65.696 0-90.752l37.632-37.664c-12.256-21.792-21.76-45.28-28.384-69.984h-41.824c-35.456 0.032-64.16-28.704-64.16-64.16v-32.064c0-35.424 28.704-64.16 64.16-64.16h42.336c6.912-24.928 16.768-48.544 29.408-70.496l-39.168-39.136c-25.056-25.056-25.056-65.696 0-90.752l22.688-22.688c25.056-25.056 65.696-25.056 90.72 0l39.392 39.392c21.888-12.448 45.408-22.144 70.208-28.896v-41.088c0-35.392 28.736-64.16 64.192-64.16h32.064c35.424 0 64.16 28.736 64.16 64.16v41.088c24.8 6.752 48.384 16.48 70.208 28.896l39.392-39.392c25.12-25.024 65.728-25.024 90.816 0.032zM400 380.576c-97.44 0-176.448 78.976-176.448 176.448 0 97.44 79.008 176.448 176.448 176.448s176.448-79.008 176.448-176.448c0-97.472-79.008-176.448-176.448-176.448zM400 639.2c-44.32 0-80.224-35.904-80.224-80.192s35.904-80.192 80.224-80.192c44.288 0 80.192 35.904 80.192 80.192s-35.904 80.192-80.192 80.192zM801.984 36.416c-21.504 0-38.912-17.408-38.912-38.912 0-21.472 17.408-38.88 38.912-38.88 21.472 0 38.912 17.408 38.912 38.88 0 21.504-17.44 38.912-38.912 38.912zM964.864 35.936h-20.288c-3.232 11.968-7.84 23.36-13.792 33.952l18.24 18.24c12.16 12.16 12.16 31.872 0 44l-11.008 11.008c-12.16 12.16-31.84 12.16-44 0l-17.92-17.888c-10.944 6.368-22.784 11.328-35.264 14.752v20.864c0 17.184-13.952 31.136-31.136 31.136h-15.552c-17.184 0-31.136-13.952-31.136-31.136v-20.864c-12.512-3.424-24.32-8.384-35.264-14.752l-17.92 17.888c-12.16 12.16-31.872 12.16-44 0l-11.008-11.008c-12.16-12.128-12.16-31.84 0-44l18.24-18.24c-5.984-10.56-10.56-21.984-13.792-33.952h-20.288c-17.184 0-31.136-13.952-31.136-31.136v-15.552c0-17.184 13.952-31.136 31.136-31.136h20.544c3.328-12.064 8.128-23.52 14.24-34.176l-18.976-18.976c-12.16-12.16-12.16-31.84 0-44.032l11.008-11.008c12.128-12.128 31.84-12.128 44 0l19.104 19.136c10.624-6.016 22.016-10.752 34.048-14.016v-19.936c0-17.184 13.952-31.136 31.136-31.136h15.552c17.184 0 31.136 13.952 31.136 31.136v19.936c12.032 3.264 23.424 7.968 34.016 14.016l19.136-19.136c12.16-12.128 31.84-12.128 44 0l11.008 11.008c12.16 12.192 12.16 31.872 0 44.032l-18.976 18.976c6.080 10.656 10.912 22.112 14.24 34.176h20.544c17.184 0 31.136 13.952 31.136 31.136v15.552c0.128 17.216-13.824 31.136-31.008 31.136zM801.984-89.024c-47.264 0-85.568 38.304-85.568 85.6 0 47.264 38.304 85.568 85.568 85.568s85.568-38.304 85.568-85.568c0-47.296-38.304-85.6-85.568-85.6z" />
<glyph unicode="&#xe055;" d="M626.272 612.576l-100.608-151.424-73.12 73.696-73.152-118.304-54.848 54.304-59.392-118.848h466.304l-105.184 260.576zM128 800v-736h736v736h-736zM800 288h-608v448h608v-448zM335.712 541.728c26.528 0 48 21.472 48 48s-21.472 48-48 48c-26.496 0-48-21.472-48-48s21.504-48 48-48z" />
<glyph unicode="&#xe056;" d="M887.456 331.68l-42.112-157.248-1.184-0.32-46.016-171.744-297.472 79.68-3.552-0.928-313.216 83.904-0.544 2.048-83.36 22.368 15.776 58.912 1.024-0.288 154.528 576.704-1.024 0.288 16.288 60.704 547.36-146.688 0.512 1.792 150.752-40.384-98.304-366.72 0.544-2.080zM908.224 656.064l-576.736 154.528-113.856-424.96 576.672-154.496 113.92 424.928zM391.488 531.456l38.208-65.44 99.424 93.6 50.656-88.512 133.92 118.048 33.504-273.888-442.304 118.592 86.592 97.6zM420.064 595.84c-25.12 6.752-40.064 32.608-33.312 57.728 6.72 25.152 32.576 40.096 57.728 33.344 25.12-6.752 40.064-32.608 33.312-57.728-6.72-25.152-32.576-40.096-57.728-33.344zM692.48 816.672l-13.248-3.552-121.44 32.544 179.136 48 27.712-103.392-70.080 18.784-2.080 7.616zM115.744 662.112l39.744-148.32-32.544-121.408-84.16 314.176 181.376 48.608-18.784-70.080-85.632-22.976zM225.856 8.448l-32.576 121.536 243.104-65.152-210.528-56.384z" />
<glyph unicode="&#xe057;" d="M849.993 13.897l-83.835 23.003-0.192 231.893 80.194-22.555 115.625 431.609-585.703 156.939-38.597-143.966h-66.071l59.522 222.117 709.063-189.975-190.007-709.065zM736.091-63.198h-736.091v734.112h736.091v-734.112zM672.258 607.079h-608.423v-446.818h608.423v446.818zM250.775 288.473l72.942 117.959 72.942-73.515 100.29 151.029 104.891-259.879-465.063-0.002 59.266 118.535 54.731-54.126zM207.161 413.303c-26.455 0-47.893 21.406-47.893 47.861s21.438 47.861 47.893 47.861 47.861-21.406 47.861-47.861-21.403-47.861-47.861-47.861z" horiz-adv-x="1040" />
<glyph unicode="&#xe058;" d="M127.584 832h-31.584v-768h832v30.816l-799.872 1.6-0.544 735.584zM352 800c0 17.696-14.336 32-32 32h-96c-17.696 0-32-14.304-32-32v-640h160v640zM544 608c0 17.696-14.336 32-32 32h-96c-17.696 0-32-14.304-32-32v-448h160v448zM736 416c0 17.696-14.336 32-32 32h-96c-17.696 0-32-14.304-32-32v-256h160v256zM896 256h-96c-17.696 0-32-14.304-32-32v-64h160v64c0 17.696-14.336 32-32 32z" />
<glyph unicode="&#xe059;" d="M127.584 832h-31.584v-768h832v30.816l-799.872 1.6-0.544 735.584zM544 800c0 17.696-14.336 32-32 32h-96c-17.696 0-32-14.304-32-32v-640h160v640zM352 608c0 17.664-14.336 32-32 32h-96c-17.696 0-32-14.336-32-32v-448h160v448zM736 416c0 17.696-14.336 32-32 32h-96c-17.696 0-32-14.304-32-32v-256h160v256zM896 256h-96c-17.696 0-32-14.304-32-32v-64h160v64c0 17.696-14.336 32-32 32z" />
<glyph unicode="&#xe05a;" d="M864 287.008h-640v-160h640c17.664 0 32 14.304 32 32v96c0 17.664-14.336 32-32 32zM704 351.008v96c0 17.664-14.336 32-32 32h-448v-160h448c17.664 0 32 14.304 32 32zM512 543.008v96c0 17.664-14.336 32-32 32h-256v-160h256c17.664 0 32 14.336 32 32zM320 735.008v96c0 17.696-14.336 32-32 32h-64v-160h64c17.664 0 32 14.336 32 32zM160 863.008h-32v-830.016h768v32h-736v798.016z" />
<glyph unicode="&#xe05b;" d="M864 479.008h-640v-160h640c17.664 0 32 14.304 32 32v96c0 17.664-14.336 32-32 32zM704 159.008v96c0 17.696-14.336 32-32 32h-448v-160h448c17.664 0 32 14.304 32 32zM512 543.008v96c0 17.664-14.336 32-32 32h-256v-160h256c17.664 0 32 14.336 32 32zM320 735.008v96c0 17.696-14.336 32-32 32h-64v-160h64c17.664 0 32 14.336 32 32zM160 863.008h-32v-830.016h768v32h-736v798.016z" />
<glyph unicode="&#xe05c;" d="M252.896 735.264c0-17.6 0-63.776 0-63.776h448.448c0 0 0 46.176 0 63.776 0 17.632-14.24 31.904-31.872 31.904h-95.68c0 0 1.088 36.416 1.088 92.224 0 51.808-44.928 99.136-98.752 99.136s-95.296-44.992-95.296-98.848c0-51.808-0.384-92.512-0.384-92.512h-95.648c-17.632 0-31.904-14.272-31.904-31.904zM476.128 862.816c17.6 0 31.904-14.272 31.904-31.872 0-17.632-14.304-31.904-31.904-31.904s-31.904 14.272-31.904 31.904c0 17.6 14.304 31.872 31.904 31.872zM765.152 767.168v-316.832c0 0 27.52 30.368 63.744 44.928v303.776c0 35.232-30.56 63.776-65.76 63.776h-157.472v-63.776h127.552c17.632 0 31.936-14.272 31.936-31.872zM410.336-0.192h-189.344c-17.6 0-31.872 14.24-31.872 31.872v735.488c0 17.6 14.272 31.872 31.872 31.872h129.568v63.776h-161.44c-35.232 0-63.776-28.576-63.776-63.776v-799.232c0-35.232 28.544-63.808 63.776-63.808h290.592c-12.48 21.056-34.784 45.376-69.376 63.808zM765.152 31.68c0-17.632-14.304-31.872-31.904-31.872h-87.328c-16.064-21.504-31.2-42.88-45.12-63.808h162.368c35.2 0 65.76 28.576 65.76 63.808v196.128c-21.12-17.376-42.496-36.992-63.744-58.56v-105.696zM898.656 290.368c-35.936 79.872-15.36 144.736-10.24 219.616-210.528-104.8-344.032-419.296-344.032-419.296l-82.144 154.752-169.44-99.808c71.904-24.928 174.592-104.8 261.888-209.632 61.568 109.824 251.552 334.368 343.968 354.368z" />
<glyph unicode="&#xe05d;" d="M768-65.312h-576c-35.36 0-64 28.576-64 63.872v771.104c0 35.264 28.64 63.84 64 63.84h160v-66.528h-128c-17.664 0-32-14.272-32-31.936v-704.544c0-17.696 14.336-31.936 32-31.936h512c17.696 0 32 14.24 32 31.936v704.544c0 17.664-14.304 31.936-32 31.936h-128v66.528h160c35.328 0 64-28.608 64-63.84v-771.104c0-35.296-28.672-63.872-64-63.872zM352 575.392h352v-31.936h-352v31.936zM352 479.584h352v-31.936h-352v31.936zM352 383.744h352v-31.936h-352v31.936zM352 287.936h352v-31.936h-352v31.936zM704 64.448h-352v31.872h352v-31.872zM352 192.128h352v-31.936h-352v31.936zM256 576.032h32v-31.936h-32v31.936zM256 480.224h32v-31.936h-32v31.936zM256 384.448h32v-31.936h-32v31.936zM256 288.64h32v-31.936h-32v31.936zM288 65.056h-32v31.936h32v-31.936zM256 192.8h32v-31.936h-32v31.936zM672 733.088c17.696 0 32-14.304 32-31.968 0-17.632 0-61.856 0-61.856h-448c0 0 0 44.224 0 61.856 0 17.664 14.304 31.968 32 31.968h96c0 0 0.384 45.408 0.384 97.312 0 53.888 41.6 98.944 95.616 98.944s97.056-47.36 97.056-99.264c0-55.904-1.056-96.992-1.056-96.992h96zM480 833.504c-17.696 0-32-14.272-32-31.904 0-17.664 14.304-31.936 32-31.936s32 14.272 32 31.936c0 17.632-14.304 31.904-32 31.904z" />
<glyph unicode="&#xe05e;" d="M912 0v-64h-784v64h-64v896h64v64h768v-64h64v-896h-48zM704 64h128v128h-128v-128zM704 256h128v128h-128v-128zM704 448h128v128h-128v-128zM448 64h128v128h-128v-128zM448 256h128v128h-128v-128zM448 448h128v128h-128v-128zM192 64h128v128h-128v-128zM192 256h128v128h-128v-128zM192 448h128v128h-128v-128zM896 832h-768v-128h768v128z" />
<glyph unicode="&#xe05f;" d="M0-64v1024h1024v-1024h-1024zM192 896h-128v-128h128v128zM192 640h-128v-128h128v128zM192 384h-128v-128h128v128zM192 128h-128v-128h128v128zM384 576v-256l256 128-256 128zM960 896h-128v-128h128v128zM960 640h-128v-128h128v128zM960 384h-128v-128h128v128zM960 128h-128v-128h128v128z" />
<glyph unicode="&#xe060;" d="M950.857 594.286q30.286 0 51.714-21.429t21.429-51.714-21.429-51.714-51.714-21.429v-219.429q0-29.714-21.714-51.429t-51.429-21.714q-238.286 198.286-464 217.143-33.143-10.857-52-37.714t-17.714-57.429 22.857-52.857q-11.429-18.857-13.143-37.429t3.429-33.143 19.143-31.429 27.429-28.571 35.143-28.857q-16.571-33.143-63.714-47.429t-96.286-6.571-75.429 31.714q-4 13.143-16.857 50t-18.286 54-13.143 50.857-8.571 57.714 2 56.286 12.571 63.143h-69.714q-37.714 0-64.571 26.857t-26.857 64.571v109.714q0 37.714 26.857 64.571t64.571 26.857h274.286q248.571 0 512 219.429 29.714 0 51.429-21.714t21.714-51.429v-219.429zM877.714 249.143v545.143q-225.143-172.571-438.857-196v-154.286q215.429-24 438.857-194.857z" />
<glyph unicode="&#xe061;" d="M680 628l167.429 167.429-61.143 61.143-167.429-167.429zM935.429 795.429q0-15.429-10.286-25.714l-734.857-734.857q-10.286-10.286-25.714-10.286t-25.714 10.286l-113.143 113.143q-10.286 10.286-10.286 25.714t10.286 25.714l734.857 734.857q10.286 10.286 25.714 10.286t25.714-10.286l113.143-113.143q10.286-10.286 10.286-25.714zM163.429 904l56-17.143-56-17.143-17.143-56-17.143 56-56 17.143 56 17.143 17.143 56zM363.429 811.429l112-34.286-112-34.286-34.286-112-34.286 112-112 34.286 112 34.286 34.286 112zM894.857 538.286l56-17.143-56-17.143-17.143-56-17.143 56-56 17.143 56 17.143 17.143 56zM529.143 904l56-17.143-56-17.143-17.143-56-17.143 56-56 17.143 56 17.143 17.143 56z" horiz-adv-x="951" />
<glyph unicode="&#xe062;" d="M1024 246.857v-182.857q0-22.857-16-38.857t-38.857-16h-182.857q-22.857 0-38.857 16t-16 38.857v182.857q0 22.857 16 38.857t38.857 16h54.857v109.714h-292.571v-109.714h54.857q22.857 0 38.857-16t16-38.857v-182.857q0-22.857-16-38.857t-38.857-16h-182.857q-22.857 0-38.857 16t-16 38.857v182.857q0 22.857 16 38.857t38.857 16h54.857v109.714h-292.571v-109.714h54.857q22.857 0 38.857-16t16-38.857v-182.857q0-22.857-16-38.857t-38.857-16h-182.857q-22.857 0-38.857 16t-16 38.857v182.857q0 22.857 16 38.857t38.857 16h54.857v109.714q0 29.714 21.714 51.429t51.429 21.714h292.571v109.714h-54.857q-22.857 0-38.857 16t-16 38.857v182.857q0 22.857 16 38.857t38.857 16h182.857q22.857 0 38.857-16t16-38.857v-182.857q0-22.857-16-38.857t-38.857-16h-54.857v-109.714h292.571q29.714 0 51.429-21.714t21.714-51.429v-109.714h54.857q22.857 0 38.857-16t16-38.857z" />
<glyph unicode="&#xe063;" d="M207.429 82.286l52 52-134.286 134.286-52-52v-61.143h73.143v-73.143h61.143zM506.286 612.571q0 12.571-12.571 12.571-5.714 0-9.714-4l-309.714-309.714q-4-4-4-9.714 0-12.571 12.571-12.571 5.714 0 9.714 4l309.714 309.714q4 4 4 9.714zM475.429 722.286l237.714-237.714-475.429-475.429h-237.714v237.714zM865.714 667.429q0-30.286-21.143-51.429l-94.857-94.857-237.714 237.714 94.857 94.286q20.571 21.714 51.429 21.714 30.286 0 52-21.714l134.286-133.714q21.143-22.286 21.143-52z" horiz-adv-x="878" />
<glyph unicode="&#xe064;" d="M128 768v-704h704v704h-704zM256 128h-64v64h64v-64zM256 224h-64v64h64v-64zM256 320h-64v64h64v-64zM256 448h-64v64h64v-64zM256 544h-64v64h64v-64zM256 640h-64v64h64v-64zM640 128h-320v256h320v-256zM640 448h-320v256h320v-256zM768 128h-64v64h64v-64zM768 224h-64v64h64v-64zM768 320h-64v64h64v-64zM768 448h-64v64h64v-64zM768 544h-64v64h64v-64zM768 640h-64v64h64v-64z" />
<glyph unicode="&#xe065;" d="M960 32h-928c-17.696 0-32 14.336-32 32v544h992v-544c0-17.664-14.336-32-32-32zM864 512c0 17.696-14.336 32-32 32h-672c-17.696 0-32-14.304-32-32v-384c0-17.664 14.304-32 32-32h672c17.664 0 32 14.336 32 32v384zM288 480h416v-32h-416v32zM0 768c0 17.696 14.304 32 32 32h64c0 0 7.168 32 15.968 32h256.032c8.8 0 16-32 16-32h224c0 0 7.168 32 16 32h256c8.8 0 16-32 16-32h64c17.664 0 32-14.304 32-32v-128h-992v128zM911.328 671.328c26.528 0 48 21.472 48 48 0 26.496-21.472 48-48 48-26.496 0-48-21.504-48-48 0-26.528 21.472-48 48-48zM785.312 671.328c26.496 0 48 21.472 48 48 0 26.496-21.504 48-48 48s-48-21.504-48-48c0-26.528 21.504-48 48-48zM657.312 671.328c26.528 0 48 21.472 48 48 0 26.496-21.472 48-48 48-26.496 0-48-21.504-48-48 0-26.528 21.504-48 48-48zM529.312 671.328c26.496 0 48 21.472 48 48 0 26.496-21.504 48-48 48s-48-21.504-48-48c0-26.528 21.504-48 48-48z" />
<glyph unicode="&#xe066;" d="M567.655 223.083c-81.945-38.119-158.158-37.717-209.339-34.021-61.051 4.409-110.158 21.125-131.742 35.733-13.301 9.006-31.383 5.522-40.391-7.783-9.003-13.303-5.52-31.385 7.783-40.391 34.697-23.486 96.069-40.953 160.162-45.579 10.866-0.784 22.798-1.278 35.646-1.278 55.783 0 126.626 5.317 202.421 40.569 14.565 6.777 20.878 24.073 14.103 38.64-6.775 14.569-24.075 20.873-38.642 14.11zM890.949 266.183c2.786 252.688 28.761 730.206-454.969 691.611-477.602-38.441-350.965-542.967-358.082-711.947-6.309-89.387-35.979-198.649-77.897-309.847h129.099c13.266 47.122 23.024 93.719 27.232 138.151 7.783-5.429 16.107-10.674 24.994-15.701 14.457-8.519 26.885-19.845 40.039-31.833 30.743-28.018 65.591-59.774 133.712-63.753 4.571-0.263 9.175-0.393 13.675-0.393 68.896 0 116.014 30.153 153.879 54.382 18.139 11.611 33.817 21.641 48.565 26.453 41.911 13.12 78.533 34.297 105.904 61.253 4.277 4.208 8.242 8.537 11.961 12.949 15.246-55.879 36.119-118.759 59.287-181.504l275.653-0.002c-66.174 102.224-134.437 202.375-133.051 330.183zM124.11 403.648c0 0.016 0 0.030-0.002 0.046-4.745 82.462 34.711 151.833 88.126 154.937 53.413 3.106 100.56-61.227 105.305-143.691 0-0.014 0.005-0.030 0.005-0.043 0.256-4.446 0.368-8.846 0.37-13.207-16.923-4.256-32.192-10.437-45.872-17.63-0.053 0.613-0.091 1.216-0.153 1.831 0 0.009 0 0.018 0 0.025-4.569 46.809-29.573 82.16-55.851 78.958-26.281-3.205-43.881-43.751-39.312-90.558 0-0.009 0.005-0.018 0.005-0.025 1.991-20.407 7.867-38.635 16.041-52.443-2.034-1.605-7.783-5.813-14.407-10.656-4.969-3.634-11.019-8.057-18.313-13.431-19.881 26.091-33.506 63.577-35.941 105.888zM665.259 199.822c-1.899-43.586-58.907-84.592-111.582-101.045l-0.297-0.096c-21.899-7.102-41.429-19.6-62.105-32.83-34.731-22.224-70.647-45.209-122.521-45.209-3.403 0-6.894 0.103-10.327 0.297-47.515 2.777-69.742 23.031-97.879 48.677-14.841 13.527-30.19 27.513-49.975 39.125l-0.423 0.245c-42.706 24.105-69.211 54.082-70.907 80.194-0.841 12.981 4.937 24.217 17.182 33.399 26.635 19.973 44.478 33.022 56.283 41.657 13.111 9.589 17.067 12.48 20 15.264 2.096 1.986 4.363 4.187 6.805 6.562 24.446 23.774 65.36 63.561 128.151 63.561 38.405 0 80.898-14.8 126.169-43.902 21.323-13.879 39.881-20.286 63.381-28.4 16.155-5.577 34.469-11.902 58.992-22.405l0.395-0.165c22.88-9.401 49.895-26.562 48.658-54.93zM652.647 302.194c-4.4 2.215-8.974 4.32-13.744 6.286-22.105 9.456-39.833 15.874-54.535 20.999 8.117 15.895 13.161 35.719 13.625 57.241 0 0.009 0 0.023 0 0.030 1.127 52.375-25.287 94.896-58.997 94.976-33.71 0.078-61.95-42.313-63.077-94.686 0-0.009 0-0.018 0-0.027-0.039-1.714-0.041-3.415-0.021-5.111-20.761 9.552-41.179 16.489-61.166 20.761-0.091 1.968-0.203 3.931-0.245 5.92 0 0.016 0 0.037 0 0.050-1.938 95.413 56.601 174.391 130.754 176.402 74.151 2.014 135.829-73.701 137.771-169.111 0-0.018 0-0.039 0-0.053 0.875-43.145-10.658-82.866-30.368-113.678z" />
<glyph unicode="&#xe067;" d="M791.497 415.909c-1.294 129.682 105.758 191.877 110.542 194.967-60.153 88.021-153.849 100.078-187.241 101.472-79.742 8.073-155.595-46.949-196.066-46.949-40.368 0-102.818 45.753-168.951 44.551-86.917-1.291-167.058-50.537-211.813-128.379-90.304-156.697-23.127-388.839 64.889-515.927 43.008-62.203 94.293-132.075 161.625-129.579 64.841 2.587 89.362 41.959 167.755 41.959s100.427-41.959 169.049-40.67c69.774 1.296 113.982 63.399 156.693 125.797 49.39 72.169 69.726 142.039 70.923 145.625-1.545 0.706-136.057 52.235-137.406 207.134zM662.562 796.478c35.737 43.358 59.861 103.513 53.28 163.522-51.479-2.096-113.879-34.29-150.809-77.55-33.143-38.377-62.149-99.625-54.375-158.437 57.465-4.485 116.128 29.205 151.904 72.464z" />
<glyph unicode="&#xe068;" d="M864 640c-35.2 0-64-28.8-64-64v-256c0-35.2 28.8-64 64-64s64 28.8 64 64v256c0 35.2-28.8 64-64 64zM96 640c-35.2 0-64-28.8-64-64v-256c0-35.2 28.8-64 64-64s64 28.8 64 64v256c0 35.2-28.802 64-64 64zM192 224c0-53.019 42.981-96 96-96h32v-128c0-35.2 28.8-64 64-64s64 28.8 64 64v128h64v-128c0-35.2 28.802-64 64-64s64 28.8 64 64v128h32c53.019 0 96 42.981 96 96v352h-576v-352zM598.599 870.505l40.503 77.806c2.032 3.902 0.501 8.759-3.401 10.791s-8.759 0.501-10.791-3.401l-41.118-78.985c-32.199 12.446-67.193 19.285-103.792 19.285-36.597 0-71.593-6.839-103.797-19.287l-41.115 78.985c-2.032 3.902-6.887 5.433-10.791 3.401s-5.433-6.887-3.401-10.791l40.501-77.808c-90.631-41.017-156.24-127.584-167.621-230.505h572.441c-11.376 102.926-76.987 189.49-167.618 230.51zM352 689.6c-25.625 0-46.4 20.775-46.4 46.4s20.775 46.4 46.4 46.4 46.4-20.775 46.4-46.4c-0.002-25.625-20.775-46.4-46.4-46.4zM608 689.6c-25.625 0-46.402 20.775-46.402 46.4s20.777 46.4 46.402 46.4 46.398-20.775 46.398-46.4c0-25.625-20.773-46.4-46.398-46.4z" />
<glyph unicode="&#xe069;" d="M412.231 448.087c-47.707 24.519-94.087 36.958-137.879 36.958-5.957 0-11.952-0.181-17.947-0.709-55.881-4.624-106.921-19.367-139.751-30.827-8.709-3.198-17.634-6.576-26.83-10.306l-89.824-311.394c61.703 22.832 116.293 33.938 166.27 33.938 80.846 0 139.527-30.208 187.991-61.305 22.962 77.918 78.043 266.089 94.482 322.325-11.95 7.285-24.075 14.569-36.512 21.321zM528.347 368.93l-90.446-314.149c26.832-15.371 117.097-64.050 186.213-64.050 55.792 0 118.251 14.297 190.834 43.792l86.357 301.975c-58.631-18.921-114.875-28.519-167.465-28.519-95.95 0-163.113 31.099-205.493 60.951zM292.823 591.209c77.118-0.798 134.151-30.208 181.417-60.503l92.752 317.344c-19.545 11.195-70.807 39.095-107.858 48.599-24.386 5.685-50.021 8.615-77.205 8.615-51.797-0.976-108.389-13.945-172.889-39.799l-88.439-310.597c64.809 24.437 120.645 36.341 172.087 36.341 0.043 0 0.135 0 0.135 0zM1024 761.877c-58.814-22.832-116.208-34.466-171.029-34.466-91.687 0-159.291 31.801-203.095 62.366l-91.947-318.235c61.746-39.707 128.29-59.879 198.121-59.879 56.949 0 115.941 13.68 175.463 40.688l-0.183 2.222 3.735 0.887 88.935 306.418z" />
<glyph unicode="&#xe06a;" d="M35.358 242.519v415.902h74.046l64.176-162.905c12.345-32.087 32.706-85.771 44.43-121.561h1.234c-2.469 43.813-8.023 116.007-8.023 192.523l0.002 91.943h70.962v-415.902h-74.050l-63.557 157.963c-13.575 35.177-32.706 87.627-41.961 125.266h-1.234c1.854-41.961 4.937-106.135 4.937-189.438v-93.792h-70.962zM529.595 425.173h-95.026v-112.309h107.367v-70.343h-188.203v415.899h180.802v-70.347h-99.963v-95.641h95.026l-0.002-67.259zM675.2 658.421v-270.277c0-61.090 18.514-79.602 39.495-79.602 23.449 0 40.107 16.661 40.107 79.602v270.277h80.839v-256.085c0-106.754-40.114-164.759-120.331-164.759-87.006 0-120.946 59.861-120.946 164.139v256.704h80.837zM896.082 286.946c0 30.238 21.6 49.984 46.281 49.984 26.535 0 46.281-19.746 46.281-49.984 0-28.386-17.893-49.369-45.662-49.369-26.535 0-46.901 20.981-46.901 49.369zM907.806 377.655l-9.257 280.763h88.24l-9.87-280.763h-69.113z" />
<glyph unicode="&#xe06b;" d="M512.002 960l-512.002-512h320v-511.998l384-0.002v512h320z" />
<glyph unicode="&#xe06c;" d="M512-64l512 512h-320v511.998l-384 0.002v-512h-320z" />
<glyph unicode="&#xe06d;" d="M1024 448l-512 512v-320h-511.998l-0.002-384h512v-320z" />
<glyph unicode="&#xe06e;" d="M0 448l512-512v320h511.998l0.002 384h-512v320z" />
<glyph unicode="&#xe06f;" d="M853.339 960h-682.654c-93.877 0-170.686-76.811-170.686-170.688v-682.629c0-93.934 76.811-170.683 170.688-170.683h682.651c93.877 0 170.661 76.747 170.661 170.683v682.629c0 93.877-76.784 170.688-170.661 170.688zM278.944 128.752c-47.97 0-86.944 38.693-86.944 86.629 0 47.685 38.971 86.811 86.944 86.811 48.158 0 87.061-39.129 87.061-86.811-0.002-47.936-38.905-86.629-87.061-86.629zM497.467 128.005c0 81.81-31.808 158.818-89.461 216.443-57.714 57.751-134.377 89.625-215.904 89.625l0.002 125.186c237.653 0 431.127-193.442 431.127-431.255h-125.765zM719.627 128.005c0 291.063-236.658 527.941-527.376 527.941v125.248c360.002 0 652.946-293.125 652.946-653.193l-125.57 0.005z" />
<glyph unicode="&#xe070;" d="M644.256 960c-209.248 0-379.52-170.24-379.52-379.616 0-50.112 10.24-97.632 27.872-141.376l-292.608-292.64 210.24-210.368 292.736 292.864c43.744-17.76 91.264-28 141.248-28 209.376 0 379.744 170.24 379.744 379.456 0.032 209.44-170.336 379.68-379.712 379.68zM644.256 328.736c-138.624 0-251.616 112.992-251.616 251.584 0 138.752 112.992 251.744 251.616 251.744 138.88 0 251.872-112.992 251.872-251.744 0-138.56-112.992-251.584-251.872-251.584z" />
<glyph unicode="&#xe071;" d="M832 832h-640c-105.6 0-192-86.4-192-192v-384c0-105.6 86.4-192 192-192h640c105.6 0 192 86.4 192 192v384c0 105.6-86.4 192-192 192zM384 192v512l320-256-320-256z" />
<glyph unicode="&#xe072;" d="M832 832h-640c-105.6 0-192-86.4-192-192v-384c0-105.6 86.4-192 192-192h640c105.6 0 192 86.4 192 192v384c0 105.6-86.4 192-192 192zM960 256c0-33.977-13.374-66.062-37.655-90.345-24.283-24.281-56.366-37.655-90.345-37.655h-640c-33.977 0-66.062 13.374-90.343 37.655-24.283 24.283-37.657 56.368-37.657 90.345v384c0 33.977 13.374 66.062 37.655 90.343s56.368 37.657 90.345 37.657h640c33.977 0 66.062-13.374 90.345-37.655 24.283-24.283 37.655-56.368 37.655-90.345v-384zM384 192l320 256-320 256z" />
<glyph unicode="&#xe073;" d="M977.582 765.538c-33.984 9.707-69.41-9.97-79.12-43.957l-5.022-17.582h-596.942l-8.992 71.938c-4.005 32.027-31.23 56.062-63.506 56.062h-160c-35.346 0-64-28.654-64-64s28.654-64 64-64h103.502l56.992-455.938c4.005-32.025 31.23-56.062 63.506-56.062h544c28.574 0 53.689 18.944 61.538 46.418l128 448c9.71 33.986-9.97 69.41-43.957 79.12zM512 448v64h127.995v-64h-127.995zM639.995 384v-64h-127.995v64h127.995zM512 576v64h127.995v-64h-127.995zM304.498 640h143.502v-64h-135.502l-8 64zM320.498 512h127.502v-64h-119.502l-8 64zM336.498 384h111.502v-64h-103.502l-8 64zM783.723 320h-79.728v64h98.014l-18.286-64zM820.297 448h-116.299v64h134.585l-18.286-64zM856.869 576h-152.873v64h171.159l-18.286-64zM256 32c0-53.019 42.981-96 96-96s96 42.981 96 96c0 53.019-42.981 96-96 96s-96-42.981-96-96zM640 32c0-53.019 42.981-96 96-96s96 42.981 96 96c0 53.019-42.981 96-96 96s-96-42.981-96-96z" />
<glyph unicode="&#xe074;" d="M512 960c-282.77 0-512-229.23-512-512s229.23-512 512-512 512 229.23 512 512-229.23 512-512 512zM416 128l-212 276 94 98 118-150 370 302 46-46-416-480z" />
<glyph unicode="&#xe075;" d="M512 960c-282.752 0-512-229.248-512-512s229.248-512 512-512 512 229.248 512 512-229.248 512-512 512zM768 384h-512v128h512v-128z" />
<glyph unicode="&#xe076;" d="M1010.432 121.248l-383.968 768c-21.664 43.36-65.952 70.752-114.464 70.752s-92.8-27.392-114.464-70.752l-383.968-768c-19.84-39.68-17.728-86.816 5.6-124.576 23.328-37.696 64.512-60.672 108.864-60.672h767.904c44.384 0 85.568 22.976 108.864 60.672 23.328 37.76 25.44 84.896 5.632 124.576zM575.936 96c0-17.696-14.304-32-32-32h-64c-17.696 0-32 14.304-32 32v64c0 17.696 14.304 32 32 32h64c17.696 0 32-14.304 32-32v-64zM575.936 352c0-17.696-14.304-32-32-32h-64c-17.696 0-32 14.304-32 32v320c0 17.664 14.304 32 32 32h64c17.696 0 32-14.336 32-32v-320z" />
<glyph unicode="&#xe077;" d="M512 960c-282.77 0-512-229.23-512-512s229.23-512 512-512 512 229.23 512 512-229.23 512-512 512zM768 613.49l-165.488-165.49 165.488-165.488v-90.512h-90.512l-165.488 165.488-165.49-165.488h-90.51v90.512l165.49 165.488-165.49 165.49v90.51h90.51l165.49-165.49 165.488 165.49h90.512v-90.51z" />
<glyph unicode="&#xe078;" d="M896 704v128h-896v-704c0-35.346 28.654-64 64-64h864c53.022 0 96 42.978 96 96v544h-128zM832 128h-768v640h768v-640zM128 640h640v-64h-640zM512 512h256v-64h-256zM512 384h256v-64h-256zM512 256h192v-64h-192zM128 512h320v-320h-320z" />
<glyph unicode="&#xe079;" d="M622.318 500.155c-123.68 0-223.714 99.646-223.714 223.817 0 124.162 100.034 223.689 223.714 223.689 123.689 0 223.904-99.527 223.904-223.689 0.007-124.153-100.217-223.817-223.904-223.817zM880.192 331.41c0 58.489-126.77 105.317-257.824 105.317-119.111 0-194.379-36.176-230.693-55.872h-0.016l-141.691-76.843 82.729 140.805c5.602 9.543 8.725 19.835 9.68 30.178 4.027-1.591 8.080-3.038 12.117-4.149 16.453 0.75 38.482 4.423 56.811 16.91l11.669 33.465c0.706 2.213 0.61 3.2-1.351 5.095-10.274 10.112-51.328 50.263-52.361 51.287-4.535 4.457-6.72 5.723-12.985 3.451-6.53-2.384-34.334-12.503-34.334-12.503-3.218-1.17-6.256-0.818-8.363 1.541-16.505 18.432-33.113 43.232-43.808 72.798-10.843 29.541-13.922 59.143-13.218 83.925 0.137 3.131 2.229 5.378 5.456 6.565 0 0 27.794 10.137 34.343 12.503 6.256 2.288 7.040 4.715 7.71 10.928 0.137 1.541 5.739 58.686 7.143 73.065 0.283 2.658-0.283 3.467-2.194 4.715l-30.453 18.165c-22.098-2.238-41.287-13.552-54.366-23.57-31.287-45.193-35.728-124.903-6.496-205.282 5.954-16.366 12.967-31.803 20.782-46.123 1.291-2.322 0.921-2.35-0.103-4.071 0 0-222.345-379.689-228.231-389.266-5.877-9.577-2.72-20.032 3.675-25.566 5.051-4.379 78.727-53.653 109.31-74.073 8.071-5.387 23.278-3.029 33.12 2.073 9.845 5.077 205.102 111.237 205.102 111.237 0.679-56.121 3.863-127.362 12.331-208.053 67.662-24.85 155.312-40.014 244.478-40.014 93.175 0 184.578 16.555 253.401 43.369 20.549 198.37 8.631 337.995 8.631 337.995z" horiz-adv-x="894" />
<glyph unicode="&#xe07a;" d="M925.205 444.514c0-226.837-183.877-410.752-410.752-410.752-226.738 0-410.645 183.915-410.645 410.752 0 226.777 183.897 410.645 410.645 410.645 226.864-0.011 410.752-183.858 410.752-410.645zM1022.967 444.514c-0.078-280.853-227.623-508.437-508.514-508.514-280.802 0.078-508.347 227.662-508.427 508.514 0.080 280.832 227.643 508.347 508.427 508.416 280.871-0.069 508.434-227.584 508.514-508.416zM974.080 444.514c-0.039 253.815-205.755 459.499-459.627 459.541-253.785-0.041-459.502-205.726-459.541-459.541 0.039-253.854 205.765-459.57 459.541-459.609 253.872 0.030 459.589 205.755 459.627 459.609zM514.453 855.147c-226.738 0-410.645-183.858-410.645-410.645 0-226.837 183.897-410.752 410.645-410.752 226.875 0 410.752 183.915 410.752 410.752 0 226.798-183.888 410.645-410.752 410.645zM514.453 855.147c-226.738 0-410.645-183.858-410.645-410.645 0-226.837 183.897-410.752 410.645-410.752 226.875 0 410.752 183.915 410.752 410.752 0 226.798-183.888 410.645-410.752 410.645zM603.511 217.659l-8.231-33.87c-24.704-9.758-44.425-17.202-59.166-22.341s-31.833-7.73-51.289-7.73c-29.952 0-53.227 7.296-69.849 21.918s-24.901 33.173-24.901 55.611c0 8.754 0.619 17.685 1.87 26.791 1.241 9.109 3.23 19.417 5.995 30.878l30.898 109.381c2.766 10.496 5.081 20.373 6.971 29.774 1.851 9.374 2.807 17.911 2.807 25.621 0 14.002-2.905 23.719-8.654 29.234-5.79 5.504-16.846 8.231-33.173 8.231-8.034 0-16.247-1.259-24.683-3.762-8.398-2.501-15.625-4.843-21.632-7.090l8.231 33.813c20.254 8.27 39.641 15.351 58.142 21.239 18.491 5.909 35.977 8.841 52.51 8.841 29.726 0 52.667-7.177 68.795-21.554 16.107-14.345 24.192-33.015 24.192-55.966 0-4.757-0.601-13.134-1.703-25.088-1.122-11.993-3.17-23.001-6.174-32.955l-30.798-108.987c-2.501-8.754-4.757-18.688-6.754-29.943s-3.003-19.751-3.003-25.463c0-14.485 3.269-24.341 9.758-29.589 6.469-5.248 17.723-7.829 33.723-7.829 7.513 0 15.991 1.301 25.502 3.909 9.488 2.606 16.361 4.91 20.615 6.928zM611.221 674.667c0-18.953-7.177-35.15-21.513-48.482-14.345-13.342-31.595-20.007-51.79-20.007s-37.525 6.665-51.989 20.007c-14.455 13.321-21.671 29.529-21.671 48.482 0 18.974 7.218 35.209 21.671 48.69 14.464 13.479 31.794 20.215 51.989 20.215s37.465-6.734 51.79-20.215 21.513-29.696 21.513-48.69z" />
<glyph unicode="&#xe07b;" d="M186.967 434.837c0-14.594-8.839-26.384-19.824-26.384-7.326 0-13.625 5.351-17.049 13.221-2.629-0.018-5.47-0.018-5.573-0.018-5.461 0-9.833 5.895-9.833 13.163s4.373 13.211 9.833 13.211c0.11 0 2.841 0 5.582-0.018 3.422 7.897 9.723 13.23 17.040 13.23 10.978 0.025 19.824-11.774 19.824-26.405zM763.296 48.281h-448.688l-241.333-112.281-21.301 7.205v105.077h-50.325v38.958h50.325v857.207l21.319 6.992 264.395-123.147h363.003v-741.045h62.603v-38.965zM97.639-25.927l217.817 101.44v736.283l-217.817 101.431v-939.154zM957.771 389.723h-113.369v-58.146l-126.727 100.501 126.727 100.978v-58.773h113.369z" horiz-adv-x="958" />
<glyph unicode="&#xe07c;" d="M1023.111 593.952v208.809c0 20.734-10.453 35.216-27.275 35.216h-964.048c-16.827 0.002-31.787-14.48-31.787-35.216v-208.811h374.176v-45.191h-374.176v-202.453h374.176v-45.191l-374.176 0.002v-205.458c0-20.731 14.96-36.763 31.787-36.763h964.046c16.825 0 27.275 16.032 27.275 36.763l0.002 205.461h-370.56v45.191h370.56v202.448h-370.56v45.191h370.56zM656.165 462.384v-27.234c0-10.448-5.547-20.153-15.467-20.153h-96.603v-92.802c0-9.915-6.297-21.077-16.743-21.077h-27.239c-10.446 0-19.287 11.161-19.287 21.077v92.802h-94.062c-9.915 0-19.815 9.705-19.815 20.153v27.234c0 10.45 9.899 17.687 19.815 17.687h94.062v96.057c0 9.918 8.839 16.014 19.287 16.014h27.239c10.446 0 16.743-6.094 16.743-16.014v-96.057h96.603c9.918 0 15.467-7.237 15.467-17.687z" />
<glyph unicode="&#xe07d;" d="M510.096 814.247c-80.496 0-145.742 65.273-145.742 145.753h510.105c80.487 0 145.735-65.255 145.735-145.753l-0.011-510.117c-80.496 0-145.742 65.255-145.742 145.735l0.021 291.504c0 40.24-32.635 72.875-72.878 72.875l-291.488 0.002zM728.709 595.621c0 40.24-32.626 72.875-72.869 72.875h-582.971c-40.251 0-72.869-32.638-72.869-72.875v-582.983c0-40.249 32.617-72.875 72.869-72.875h582.971c40.242 0 72.869 32.626 72.869 72.875v582.983z" />
<glyph unicode="&#xe07e;" d="M170.181 284.018c0 262.203 271.25 426.034 344.162 675.982 72.903-249.947 344.123-413.778 344.123-675.982 0-190.053-154.048-344.103-344.123-344.103-190.082 0-344.162 154.048-344.162 344.103zM704.114 353.483l-184.123-4.169 80.055 181.285-271.648-283.566 186.002 5.31-79.925-182.981 269.639 284.121z" />
<glyph unicode="&#xe07f;" d="M7.525 312.777v276.606h49.248l42.679-108.343c8.208-21.342 21.751-57.047 29.547-80.848h0.823c-1.641 29.136-5.335 77.154-5.335 128.043v61.147h47.195v-276.603l-49.248-0.002-42.272 105.058c-9.029 23.394-21.751 58.277-27.906 83.31h-0.823c1.23-27.906 3.285-70.587 3.285-125.991v-62.377h-47.193zM273.045 589.383v-276.603h-53.762v276.603h53.762zM438.016 434.249h-63.2v-74.693h71.408v-46.782h-125.17v276.608h120.247v-46.786h-66.485v-63.609h63.2v-44.738zM534.869 589.383v-179.753c0-40.631 12.311-52.939 26.265-52.939 15.593 0 26.677 11.081 26.677 52.939v179.753h53.762v-170.315c0-70.999-26.677-109.575-80.027-109.575-57.865 0-80.439 39.808-80.439 109.163v170.727h53.762zM716.672 312.777l-47.195 276.603h55.815l13.543-110.395c3.694-31.602 6.155-63.202 9.442-96.855h1.23c3.694 34.066 9.849 64.025 15.593 97.266l19.701 109.986h43.502l18.469-109.166c4.923-31.191 9.849-61.968 13.134-98.087h0.818c3.694 36.119 6.976 65.664 10.672 97.673l13.543 109.575h52.533l-48.839-276.603h-55.401l-16.416 90.695c-4.514 25.445-8.617 57.045-12.311 90.697h-0.821c-4.926-33.241-9.44-64.023-15.184-91.109l-18.469-90.286-53.358 0.005zM960.439 342.327c0 20.107 14.363 33.239 30.779 33.239 17.648 0 30.782-13.129 30.782-33.239 0-18.878-11.902-32.834-30.37-32.834-17.648 0-31.191 13.954-31.191 32.834zM968.238 402.649l-6.155 186.731h58.688l-6.567-186.731h-45.966z" />
<glyph unicode="&#xe080;" d="M4.021 688.777l132.386 105.022 323.593-1.648v155.849l92 0.087v-156.087l355.193-1.934 0.43-206.293-355.623-1.648v-126.126l336.661-0.359 134.626-101.68-128.569-106.176-342.718-0.994v-250.791l-91.337-0.181-0.53 246.551-335.52 0.859-0.37 212.77 335.758-1.001v127.001l-330.087-0.281z" />
<glyph unicode="&#xe081;" d="M86.24 592.055h-80.841v82.199h251.355v-82.199h-81.52v-375.675h-88.994v375.675zM565.184 453.467c0-172.551-61.143-242.523-148.098-242.523-103.941 0-144.699 110.053-144.699 235.733 0 125.001 49.593 233.015 150.814 233.015 110.734 0 141.984-121.602 141.984-226.224zM364.777 445.319c0-103.941 19.701-156.928 55.705-156.928 37.362 0 51.627 67.934 51.627 161.003 0 80.162-12.229 152.853-52.309 152.853-35.323 0-55.024-58.425-55.024-156.928zM621.561 667.463c25.134 5.435 59.104 8.834 93.070 8.834 52.99 0 94.43-7.474 124.318-35.328 27.175-23.776 39.401-61.819 39.401-100.542 0-49.593-14.946-84.24-38.72-110.055-28.535-29.893-74.729-43.479-111.413-43.479-6.114 0-12.231 0-17.666 0v-170.514h-88.992l0.002 451.083zM710.553 459.586c4.078-1.36 8.834-1.36 14.267-1.36 44.839 0 65.216 31.929 65.216 74.729 0 40.080-16.302 71.33-57.744 71.33-8.151 0-16.304-1.358-21.739-3.397v-141.303zM921.824 265.291c0 33.287 23.778 55.029 50.951 55.029 29.214 0 50.951-21.739 50.951-55.029 0-31.25-19.701-54.347-50.27-54.347-29.214 0.002-51.632 23.097-51.632 54.347zM934.729 365.157l-10.187 309.099h97.145l-10.869-309.099h-76.089z" />
<glyph unicode="&#xe082;" d="M87.054 582.603h-75.445v76.713h234.583v-76.713h-76.085v-350.603h-83.054v350.603zM525.84 453.266c0-161.035-57.061-226.338-138.213-226.338-97.001 0-135.042 102.709-135.042 219.998 0 116.658 46.283 217.465 140.75 217.465 103.342 0 132.505-113.488 132.505-211.125zM338.807 445.659c0-97.003 18.386-146.457 51.989-146.457 34.871 0 48.185 63.401 48.185 150.261 0 74.811-11.413 142.649-48.818 142.649-32.967 0.002-51.355-54.523-51.355-146.453zM565.392 652.978c23.458 5.072 55.159 8.242 86.859 8.242 49.451 0 88.126-6.974 116.023-32.969 25.362-22.19 36.775-57.694 36.775-93.833 0-46.281-13.95-78.617-36.137-102.709-26.629-27.895-69.739-40.576-103.975-40.576-5.705 0-11.413 0-16.485 0l-0.002-159.134h-83.054v420.978zM648.448 458.971c3.803-1.269 8.242-1.269 13.314-1.269 41.845 0 60.864 29.799 60.864 69.739 0 37.406-15.214 66.569-53.888 66.569-7.609 0-15.216-1.269-20.29-3.17v-131.87zM918.898 277.648c0 31.065 22.192 51.353 47.55 51.353 27.262 0 47.55-20.288 47.55-51.353 0-29.163-18.386-50.72-46.917-50.72-27.262 0-48.183 21.557-48.183 50.72zM930.946 370.848l-9.511 288.471h90.663l-10.144-288.471h-71.008z" />
</font>
</defs>
</svg>
